<?xml version="1.0" encoding="iso-8859-1"?>
<!-- Generator: Adobe Illustrator 16.0.0, SVG Export Plug-In . SVG Version: 6.00 Build 0)  -->
<!DOCTYPE svg PUBLIC "-//W3C//DTD SVG 1.1//EN" "http://www.w3.org/Graphics/SVG/1.1/DTD/svg11.dtd">
<svg version="1.1" id="Layer_1" xmlns="http://www.w3.org/2000/svg" xmlns:xlink="http://www.w3.org/1999/xlink" x="0px" y="0px"
	 width="32.004px" height="32.004px" viewBox="0 0 32.004 32.004" style="enable-background:new 0 0 32.004 32.004;"
	 xml:space="preserve">
<g id="Body_5_">
	<g>
		<path style="fill:#666666;" d="M31.423,8.992l-8.411-8.411c-0.774-0.774-2.03-0.774-2.804,0L0.581,20.207
			c-0.774,0.774-0.774,2.03,0,2.805l8.411,8.411c0.774,0.774,2.03,0.774,2.804,0l19.627-19.627
			C32.197,11.021,32.197,9.767,31.423,8.992z"/>
	</g>
</g>
<g id="Head_1_">
	<g>
		<path style="fill:#CCCCCC;" d="M30.395,3.055l-1.446-1.446c-0.799-0.799-2.095-0.799-2.894,0l-1.446,1.446
			c-0.799,0.799-0.799,2.094,0,2.893l1.446,1.447c0.799,0.799,2.095,0.799,2.894,0l1.446-1.447
			C31.193,5.148,31.193,3.854,30.395,3.055z"/>
	</g>
</g>
<g id="Shape">
	<g>
		<path style="fill:#FFA769;" d="M31.423,8.992l-8.411-8.411c-0.774-0.774-2.03-0.774-2.804,0l-4.627,4.627l11.215,11.215
			l4.627-4.627C32.197,11.021,32.197,9.767,31.423,8.992z"/>
	</g>
</g>
<g id="Flash">
	<g>
		<path style="fill:#FFA769;" d="M16.987,17.743c-0.058-0.137-0.188-0.226-0.333-0.226l-2.816,0.375l0.988-4.416
			c0.037-0.167-0.04-0.34-0.188-0.418s-0.329-0.043-0.439,0.086l-5.091,6.75c-0.095,0.11-0.117,0.268-0.059,0.401
			c0.059,0.135,0.188,0.222,0.331,0.222l2.78-0.375l-0.945,4.39c-0.05,0.166,0.019,0.347,0.164,0.435
			c0.058,0.034,0.12,0.051,0.183,0.051c0.098,0,0.194-0.041,0.266-0.118l5.091-6.75C17.019,18.04,17.045,17.881,16.987,17.743z"/>
	</g>
</g>
<g>
</g>
<g>
</g>
<g>
</g>
<g>
</g>
<g>
</g>
<g>
</g>
<g>
</g>
<g>
</g>
<g>
</g>
<g>
</g>
<g>
</g>
<g>
</g>
<g>
</g>
<g>
</g>
<g>
</g>
</svg>
