<?xml version="1.0" encoding="iso-8859-1"?>
<!-- Generator: Adobe Illustrator 16.0.0, SVG Export Plug-In . SVG Version: 6.00 Build 0)  -->
<!DOCTYPE svg PUBLIC "-//W3C//DTD SVG 1.1//EN" "http://www.w3.org/Graphics/SVG/1.1/DTD/svg11.dtd">
<svg version="1.1" id="Layer_1" xmlns="http://www.w3.org/2000/svg" xmlns:xlink="http://www.w3.org/1999/xlink" x="0px" y="0px"
	 width="32px" height="30px" viewBox="0 0 32 30" style="enable-background:new 0 0 32 30;" xml:space="preserve">
<g id="Legs_1_">
	<g>
		<path style="fill-rule:evenodd;clip-rule:evenodd;fill:#735538;" d="M6.5,24C5.672,24,5,24.671,5,25.5v3C5,29.328,5.672,30,6.5,30
			S8,29.328,8,28.5v-3C8,24.671,7.328,24,6.5,24z M25.5,24c-0.828,0-1.5,0.671-1.5,1.5v3c0,0.828,0.672,1.5,1.5,1.5
			s1.5-0.672,1.5-1.5v-3C27,24.671,26.328,24,25.5,24z"/>
	</g>
</g>
<g id="Backrest">
	<g>
		<path style="fill:#A67C52;" d="M16,0C5,0,3,2,3,5c0,5,2,5,2,18h22c0-13,2-13,2-18C29,2,26,0,16,0z"/>
	</g>
</g>
<g id="Backrest_1_">
	<g>
		<path style="fill-rule:evenodd;clip-rule:evenodd;fill:#CCC2B8;" d="M27,5c0-2-4-3-11-3S5,3,5,5c0,2.705,1.625,2.976,1.945,14H6v4
			h1h18h1v-4h-0.945C25.375,7.976,27,7.705,27,5z"/>
	</g>
</g>
<g id="Nails">
	<g>
		<path style="fill-rule:evenodd;clip-rule:evenodd;fill:#B3AAA1;" d="M16,7c-0.553,0-1,0.447-1,1c0,0.552,0.447,1,1,1
			c0.552,0,1-0.448,1-1C17,7.447,16.552,7,16,7z M19,4c-0.553,0-1,0.447-1,1c0,0.552,0.447,1,1,1c0.552,0,1-0.448,1-1
			C20,4.447,19.552,4,19,4z M13,10c-0.553,0-1,0.447-1,1c0,0.552,0.447,1,1,1c0.552,0,1-0.448,1-1C14,10.447,13.552,10,13,10z
			 M19,10c-0.553,0-1,0.447-1,1c0,0.552,0.447,1,1,1c0.552,0,1-0.448,1-1C20,10.447,19.552,10,19,10z M22,9c0.552,0,1-0.448,1-1
			c0-0.553-0.448-1-1-1c-0.553,0-1,0.447-1,1C21,8.552,21.447,9,22,9z M10,13c-0.553,0-1,0.447-1,1c0,0.552,0.447,1,1,1
			c0.552,0,1-0.448,1-1C11,13.447,10.552,13,10,13z M16,13c-0.553,0-1,0.447-1,1c0,0.552,0.447,1,1,1c0.552,0,1-0.448,1-1
			C17,13.447,16.552,13,16,13z M22,13c-0.553,0-1,0.447-1,1c0,0.552,0.447,1,1,1c0.552,0,1-0.448,1-1C23,13.447,22.552,13,22,13z
			 M13,4c-0.553,0-1,0.447-1,1c0,0.552,0.447,1,1,1c0.552,0,1-0.448,1-1C14,4.447,13.552,4,13,4z M10,7C9.447,7,9,7.447,9,8
			c0,0.552,0.447,1,1,1c0.552,0,1-0.448,1-1C11,7.447,10.552,7,10,7z"/>
	</g>
</g>
<g id="Seat">
	<g>
		<path style="fill:#E6DACF;" d="M25,17H7c-0.553,0-1,0.447-1,1v1h20v-1C26,17.447,25.552,17,25,17z"/>
	</g>
</g>
<g id="Arms">
	<g>
		<path style="fill-rule:evenodd;clip-rule:evenodd;fill:#A67C52;" d="M29,12c-1.657,0-3,1.343-3,3v4c0,2-1,4-2,4H8c-1,0-2-2-2-4v-4
			c0-1.657-1.344-3-3-3c-1.657,0-3,1.343-3,3c0,3,3,3,3,4c0,0,0,9,3,9h2h16h2c3,0,3-9,3-9c0-1,3-1,3-4C32,13.343,30.656,12,29,12z"
			/>
	</g>
</g>
<g>
</g>
<g>
</g>
<g>
</g>
<g>
</g>
<g>
</g>
<g>
</g>
<g>
</g>
<g>
</g>
<g>
</g>
<g>
</g>
<g>
</g>
<g>
</g>
<g>
</g>
<g>
</g>
<g>
</g>
</svg>
