<?xml version="1.0" encoding="iso-8859-1"?>
<!-- Generator: Adobe Illustrator 16.0.0, SVG Export Plug-In . SVG Version: 6.00 Build 0)  -->
<!DOCTYPE svg PUBLIC "-//W3C//DTD SVG 1.1//EN" "http://www.w3.org/Graphics/SVG/1.1/DTD/svg11.dtd">
<svg version="1.1" id="Layer_1" xmlns="http://www.w3.org/2000/svg" xmlns:xlink="http://www.w3.org/1999/xlink" x="0px" y="0px"
	 width="32px" height="32.014px" viewBox="0 0 32 32.014" style="enable-background:new 0 0 32 32.014;" xml:space="preserve">
<g id="Ears">
	<g>
		<path style="fill-rule:evenodd;clip-rule:evenodd;fill:#75A64B;" d="M4.405,2.528C3.061,3.437,2.601,5.449,3.376,7.022
			s3.431,4.012,4.775,3.103c1.344-0.908,0.868-4.819,0.092-6.393C7.467,2.159,5.749,1.62,4.405,2.528z M20.155,0.005
			c-1.656,0.09-3.073,1.549-3.167,3.259c-0.093,1.71,1.062,5.086,2.717,4.996c1.656-0.091,3.186-3.613,3.279-5.323
			C23.077,1.228,21.811-0.085,20.155,0.005z"/>
	</g>
</g>
<g id="Head_2_">
	<g>
		<ellipse style="fill:#88C057;" cx="16" cy="18.594" rx="16" ry="13.419"/>
	</g>
</g>
<g id="Mouth">
	<g>
		<path style="fill:#638C3F;" d="M16,23.756c-4.418,0-8-0.679-8,1.031c0,1.711,3.582,3.098,8,3.098c4.418,0,8-1.387,8-3.098
			C24,23.077,20.418,23.756,16,23.756z"/>
	</g>
</g>
<g id="Eye_balls">
	<g>
		<path style="fill-rule:evenodd;clip-rule:evenodd;fill:#FFFFFF;" d="M6,13.433c-1.657,0-3,1.387-3,3.097
			c0,1.711,1.343,3.097,3,3.097s3-1.386,3-3.097C9,14.819,7.657,13.433,6,13.433z M26,13.433c-1.657,0-3,1.387-3,3.097
			c0,1.711,1.343,3.097,3,3.097s3-1.386,3-3.097C29,14.819,27.657,13.433,26,13.433z"/>
	</g>
</g>
<g id="Eyes_1_">
	<g>
		<path style="fill-rule:evenodd;clip-rule:evenodd;fill:#4D4D4D;" d="M7,15.497c-0.552,0-1,0.463-1,1.032
			c0,0.57,0.448,1.032,1,1.032s1-0.462,1-1.032C8,15.96,7.552,15.497,7,15.497z M27,15.497c-0.552,0-1,0.463-1,1.032
			c0,0.57,0.448,1.032,1,1.032s1-0.462,1-1.032C28,15.96,27.552,15.497,27,15.497z"/>
	</g>
</g>
<g id="Nose">
	<g>
		<ellipse style="fill:#ABF26D;" cx="16" cy="19.626" rx="7" ry="6.194"/>
	</g>
</g>
<g id="Nose_Holes">
	<g>
		<path style="fill-rule:evenodd;clip-rule:evenodd;fill:#3F5928;" d="M13,17.562c-0.552,0-1,0.925-1,2.064
			c0,1.141,0.448,2.065,1,2.065s1-0.925,1-2.065C14,18.486,13.552,17.562,13,17.562z M19,17.562c-0.552,0-1,0.925-1,2.064
			c0,1.141,0.448,2.065,1,2.065s1-0.925,1-2.065C20,18.486,19.552,17.562,19,17.562z"/>
	</g>
</g>
<g id="Eyebrows">
	<g>
		<path style="fill-rule:evenodd;clip-rule:evenodd;fill:#638C3F;" d="M8,9.304H4c-0.552,0-1,0.462-1,1.032s0.448,1.032,1,1.032h4
			c0.552,0,1-0.462,1-1.032S8.552,9.304,8,9.304z M28,9.304h-4c-0.552,0-1,0.462-1,1.032s0.448,1.032,1,1.032h4
			c0.552,0,1-0.462,1-1.032S28.552,9.304,28,9.304z"/>
	</g>
</g>
<g>
</g>
<g>
</g>
<g>
</g>
<g>
</g>
<g>
</g>
<g>
</g>
<g>
</g>
<g>
</g>
<g>
</g>
<g>
</g>
<g>
</g>
<g>
</g>
<g>
</g>
<g>
</g>
<g>
</g>
</svg>
