<?xml version="1.0" encoding="iso-8859-1"?>
<!-- Generator: Adobe Illustrator 16.0.0, SVG Export Plug-In . SVG Version: 6.00 Build 0)  -->
<!DOCTYPE svg PUBLIC "-//W3C//DTD SVG 1.1//EN" "http://www.w3.org/Graphics/SVG/1.1/DTD/svg11.dtd">
<svg version="1.1" id="Layer_1" xmlns="http://www.w3.org/2000/svg" xmlns:xlink="http://www.w3.org/1999/xlink" x="0px" y="0px"
	 width="32px" height="30px" viewBox="0 0 32 30" style="enable-background:new 0 0 32 30;" xml:space="preserve">
<g id="Stand_1_">
	<g>
		<rect x="8" y="22" style="fill:#B3B3B3;" width="16" height="4"/>
	</g>
</g>
<g id="Leg">
	<g>
		<path style="fill:#CCCCCC;" d="M24,3v25c0,1.104,0.895,2,2,2c1.104,0,2-0.896,2-2V3H24z M4,28c0,1.104,0.896,2,2,2s2-0.896,2-2V3
			H4V28z"/>
	</g>
</g>
<g id="Bar">
	<g>
		<path style="fill:#E6E6E6;" d="M30.223,8H1.778C0.796,8,0,8.805,0,9.798v4.395c0,0.993,0.796,1.798,1.778,1.798h28.445
			c0.981,0,1.777-0.805,1.777-1.798V9.798C32,8.805,31.204,8,30.223,8z"/>
	</g>
</g>
<g id="Stripes_1_">
	<g>
		<path style="fill-rule:evenodd;clip-rule:evenodd;fill:#FF8833;" d="M30.223,8H29l-7.99,7.99h6L32,11V9.798
			C32,8.805,31.204,8,30.223,8z M5,8l-5,5v1.197c0.003,0.991,0.797,1.793,1.777,1.793H3.01L11,8H5z M17,8l-8,8h6l8-8H17z"/>
	</g>
</g>
<g id="Lights">
	<g>
		<path style="fill-rule:evenodd;clip-rule:evenodd;fill:#FFCC66;" d="M6,0C4.344,0,3,1.343,3,3c0,1.656,1.343,3,3,3s3-1.344,3-3
			C9,1.343,7.657,0,6,0z M26,0c-1.657,0-3,1.343-3,3c0,1.656,1.343,3,3,3s3-1.344,3-3C29,1.343,27.657,0,26,0z"/>
	</g>
</g>
<g>
</g>
<g>
</g>
<g>
</g>
<g>
</g>
<g>
</g>
<g>
</g>
<g>
</g>
<g>
</g>
<g>
</g>
<g>
</g>
<g>
</g>
<g>
</g>
<g>
</g>
<g>
</g>
<g>
</g>
</svg>
