<?xml version="1.0" encoding="iso-8859-1"?>
<!-- Generator: Adobe Illustrator 16.0.0, SVG Export Plug-In . SVG Version: 6.00 Build 0)  -->
<!DOCTYPE svg PUBLIC "-//W3C//DTD SVG 1.1//EN" "http://www.w3.org/Graphics/SVG/1.1/DTD/svg11.dtd">
<svg version="1.1" id="Layer_1" xmlns="http://www.w3.org/2000/svg" xmlns:xlink="http://www.w3.org/1999/xlink" x="0px" y="0px"
	 width="22px" height="32px" viewBox="0 0 22 32" style="enable-background:new 0 0 22 32;" xml:space="preserve">
<g id="Ball_2_">
	<g>
		<circle style="fill:#CCA352;" cx="11" cy="29" r="3"/>
	</g>
</g>
<g id="Bell">
	<g>
		<path style="fill-rule:evenodd;clip-rule:evenodd;fill:#FFCC66;" d="M20,22.999c0,0-1-0.02-1-0.999c0-9-5-12-7-12c0-2.642,2-7,2-7
			c0-1.657-1.344-3-3-3C9.343,0,8,1.343,8,3c0,0,2,4.358,2,7c-2,0-7,3-7,12c0,0.979-1,0.999-1,0.999c-1.104,0-2,0.896-2,2.001v2
			c0,1.104,0.896,2,2,2h18c1.104,0,2-0.896,2-2v-2C22,23.895,21.104,22.999,20,22.999z"/>
	</g>
</g>
<g id="Bow">
	<g>
		<path style="fill-rule:evenodd;clip-rule:evenodd;fill:#ED7161;" d="M2,6c0,0.999,0,4.062,0,6c0,1.937,1,2,2,2c2,0,6-4,6-4V8
			c0,0-4-4-6-4C3,4,2,4,2,6z M18,4c-2,0-6,4-6,4v2c0,0,4,4,6,4c1,0,2-0.063,2-2c0-1.938,0-5.001,0-6C20,4,19,4,18,4z"/>
	</g>
</g>
<g id="Knot">
	<g>
		<path style="fill:#BA594C;" d="M12,6.999h-2C9.447,6.999,9,7.447,9,8v2c0,0.552,0.447,0.999,1,0.999h2c0.552,0,1-0.447,1-0.999V8
			C13,7.447,12.552,6.999,12,6.999z"/>
	</g>
</g>
<g>
</g>
<g>
</g>
<g>
</g>
<g>
</g>
<g>
</g>
<g>
</g>
<g>
</g>
<g>
</g>
<g>
</g>
<g>
</g>
<g>
</g>
<g>
</g>
<g>
</g>
<g>
</g>
<g>
</g>
</svg>
