<?xml version="1.0" encoding="iso-8859-1"?>
<!-- Generator: Adobe Illustrator 16.0.0, SVG Export Plug-In . SVG Version: 6.00 Build 0)  -->
<!DOCTYPE svg PUBLIC "-//W3C//DTD SVG 1.1//EN" "http://www.w3.org/Graphics/SVG/1.1/DTD/svg11.dtd">
<svg version="1.1" id="Layer_1" xmlns="http://www.w3.org/2000/svg" xmlns:xlink="http://www.w3.org/1999/xlink" x="0px" y="0px"
	 width="32px" height="28px" viewBox="0 0 32 28" style="enable-background:new 0 0 32 28;" xml:space="preserve">
<g id="Button_2_">
	<g>
		<path style="fill:#88C057;" d="M30,0H2C0.896,0,0,0.896,0,2v14c0,1.104,0.896,2,2,2h28c1.104,0,2-0.896,2-2V2
			C32,0.896,31.104,0,30,0z"/>
	</g>
</g>
<g id="BUY">
	<g>
		<path style="fill-rule:evenodd;clip-rule:evenodd;fill:#FFFFFF;" d="M16,5.999C15.997,5.999,15.994,6,15.99,6h0.02
			C16.006,6,16.003,5.999,16,5.999z M9.6,8.471C9.847,8.034,10,7.537,10,7c0-1.657-1.343-3-3-3H4C3.448,4,3,4.447,3,5v8
			c0,0.552,0.448,1,1,1h3v-0.184C7.314,13.928,7.647,14,8,14c1.657,0,3-1.344,3-3C11,9.933,10.439,9.002,9.6,8.471z M5,6h2
			c0.552,0,1,0.447,1,1c0,0.552-0.448,1-1,1H5V6z M8,12H5v-2h3c0.552,0,1,0.447,1,1C9,11.552,8.552,12,8,12z M19,4
			c-0.552,0-1,0.447-1,1v5c0,1.105-0.896,1.999-2,1.999c-1.104,0-1.999-0.893-2-1.997C14,10.001,14,10,14,10V5c0-0.553-0.448-1-1-1
			c-0.552,0-1,0.447-1,1v5c0,2.209,1.791,4,4,4c2.209,0,4-1.791,4-4V5C20,4.447,19.552,4,19,4z M28.525,4.127
			c-0.472-0.277-1.082-0.124-1.362,0.342L25,8.066l-2.164-3.598c-0.28-0.466-0.89-0.619-1.362-0.342
			c-0.472,0.277-0.626,0.88-0.346,1.347L24,10.248V13c0,0.552,0.448,1,1,1s1-0.448,1-1v-2.753l2.872-4.773
			C29.152,5.007,28.997,4.404,28.525,4.127z"/>
	</g>
</g>
<g id="Cursor">
	<g>
		<path style="fill-rule:evenodd;clip-rule:evenodd;fill:#666666;" d="M31.707,25.293l-5.105-5.105l3.715-1.239
			c0.389-0.129,0.658-0.482,0.682-0.892c0.023-0.408-0.204-0.79-0.575-0.963l-15-7c-0.381-0.177-0.832-0.099-1.13,0.199
			c-0.297,0.297-0.377,0.749-0.199,1.129l7,15.001C21.259,26.776,21.613,27,22,27c0.02,0,0.039-0.002,0.058-0.003
			c0.409-0.022,0.762-0.292,0.891-0.681l1.239-3.715l5.105,5.104C29.488,27.902,29.744,28,30,28s0.512-0.098,0.707-0.294l1-0.999
			C32.098,26.316,32.098,25.684,31.707,25.293z"/>
	</g>
</g>
<g>
</g>
<g>
</g>
<g>
</g>
<g>
</g>
<g>
</g>
<g>
</g>
<g>
</g>
<g>
</g>
<g>
</g>
<g>
</g>
<g>
</g>
<g>
</g>
<g>
</g>
<g>
</g>
<g>
</g>
</svg>
