<?xml version="1.0" encoding="iso-8859-1"?>
<!-- Generator: Adobe Illustrator 16.0.0, SVG Export Plug-In . SVG Version: 6.00 Build 0)  -->
<!DOCTYPE svg PUBLIC "-//W3C//DTD SVG 1.1//EN" "http://www.w3.org/Graphics/SVG/1.1/DTD/svg11.dtd">
<svg version="1.1" id="Layer_1" xmlns="http://www.w3.org/2000/svg" xmlns:xlink="http://www.w3.org/1999/xlink" x="0px" y="0px"
	 width="28px" height="32px" viewBox="0 0 28 32" style="enable-background:new 0 0 28 32;" xml:space="preserve">
<g id="Body_7_">
	<g>
		<path style="fill:#E6E6E6;" d="M0,10.999v19C0,31.104,0.896,32,2,32h24c1.104,0,2-0.896,2-2.001v-19H0z"/>
	</g>
</g>
<g id="Body_8_">
	<g>
		<path style="fill:#CCCCCC;" d="M26,0H2C0.896,0,0,0.895,0,1.999v9h28v-9C28,0.895,27.105,0,26,0z"/>
	</g>
</g>
<g id="Display_1_">
	<g>
		<path style="fill:#999999;" d="M24,2.999H4C3.448,2.999,3,3.447,3,4v4c0,0.552,0.447,0.999,1,0.999h20c0.552,0,1-0.447,1-0.999V4
			C25,3.447,24.553,2.999,24,2.999z"/>
	</g>
</g>
<g id="Keypad">
	<g>
		<path style="fill-rule:evenodd;clip-rule:evenodd;fill:#999999;" d="M6,12.999H4c-0.553,0-1,0.448-1,1.001v1.999
			C3,16.552,3.448,17,4,17h2c0.552,0,1-0.448,1-1.001V14C7,13.447,6.553,12.999,6,12.999z M6,18.999H4c-0.553,0-1,0.448-1,1v2
			C3,22.552,3.448,23,4,23h2c0.552,0,1-0.448,1-1.001v-2C7,19.447,6.553,18.999,6,18.999z M6,24.999H4c-0.553,0-1,0.448-1,1v2
			C3,28.552,3.448,29,4,29h2c0.552,0,1-0.448,1-1.001v-2C7,25.447,6.553,24.999,6,24.999z M12,12.999h-2c-0.552,0-1,0.448-1,1.001
			v1.999C9,16.552,9.448,17,10,17h2c0.552,0,1-0.448,1-1.001V14C13,13.447,12.553,12.999,12,12.999z M12,18.999h-2
			c-0.552,0-1,0.448-1,1v2C9,22.552,9.448,23,10,23h2c0.552,0,1-0.448,1-1.001v-2C13,19.447,12.553,18.999,12,18.999z M12,24.999h-2
			c-0.552,0-1,0.448-1,1v2C9,28.552,9.448,29,10,29h2c0.552,0,1-0.448,1-1.001v-2C13,25.447,12.553,24.999,12,24.999z M18,12.999h-2
			c-0.552,0-1,0.448-1,1.001v1.999C15,16.552,15.448,17,16,17h2c0.552,0,1-0.448,1-1.001V14C19,13.447,18.553,12.999,18,12.999z
			 M18,18.999h-2c-0.552,0-1,0.448-1,1v2C15,22.552,15.448,23,16,23h2c0.552,0,1-0.448,1-1.001v-2
			C19,19.447,18.553,18.999,18,18.999z M18,24.999h-2c-0.552,0-1,0.448-1,1v2C15,28.552,15.448,29,16,29h2c0.552,0,1-0.448,1-1.001
			v-2C19,25.447,18.553,24.999,18,24.999z M24,12.999h-2c-0.553,0-1,0.448-1,1.001v1.999C21,16.552,21.448,17,22,17h2
			c0.552,0,1-0.448,1-1.001V14C25,13.447,24.553,12.999,24,12.999z"/>
	</g>
</g>
<g id="Key">
	<g>
		<path style="fill:#FF8833;" d="M24,18.999h-2c-0.553,0-1,0.448-1,1v8C21,28.552,21.448,29,22,29h2c0.552,0,1-0.448,1-1.001v-8
			C25,19.447,24.553,18.999,24,18.999z"/>
	</g>
</g>
<g>
</g>
<g>
</g>
<g>
</g>
<g>
</g>
<g>
</g>
<g>
</g>
<g>
</g>
<g>
</g>
<g>
</g>
<g>
</g>
<g>
</g>
<g>
</g>
<g>
</g>
<g>
</g>
<g>
</g>
</svg>
