<?xml version="1.0" encoding="iso-8859-1"?>
<!-- Generator: Adobe Illustrator 16.0.0, SVG Export Plug-In . SVG Version: 6.00 Build 0)  -->
<!DOCTYPE svg PUBLIC "-//W3C//DTD SVG 1.1//EN" "http://www.w3.org/Graphics/SVG/1.1/DTD/svg11.dtd">
<svg version="1.1" id="Layer_1" xmlns="http://www.w3.org/2000/svg" xmlns:xlink="http://www.w3.org/1999/xlink" x="0px" y="0px"
	 width="32px" height="30px" viewBox="0 0 32 30" style="enable-background:new 0 0 32 30;" xml:space="preserve">
<g id="Peak">
	<g>
		<path style="fill:#48A0DC;" d="M1,18v4c0,4,0,8,1,8c4,0,6-4,14-4s10,4,14,4c1,0,1-4,1-8v-4H1z"/>
	</g>
</g>
<g id="Crown">
	<g>
		<path style="fill-rule:evenodd;clip-rule:evenodd;fill:#408EC2;" d="M17,1c0-1-0.448-1-1-1c-0.553,0-1,0-1,1C4,1,0,9,0,18
			c0,4,1,4,1,4l2-1c2-1,7-3,13-3s11,2,13,3l2,1c0,0,1,0,1-4C32,9,28,1,17,1z"/>
	</g>
</g>
<g id="Front">
	<g>
		<path style="fill:#E6E6E6;" d="M16,1C4,1,3,10,3,12v9c2-1,7-3,13-3s11,2,13,3v-9C29,10,28,1,16,1z"/>
	</g>
</g>
<g>
</g>
<g>
</g>
<g>
</g>
<g>
</g>
<g>
</g>
<g>
</g>
<g>
</g>
<g>
</g>
<g>
</g>
<g>
</g>
<g>
</g>
<g>
</g>
<g>
</g>
<g>
</g>
<g>
</g>
</svg>
