<?xml version="1.0" encoding="iso-8859-1"?>
<!-- Generator: Adobe Illustrator 16.0.0, SVG Export Plug-In . SVG Version: 6.00 Build 0)  -->
<!DOCTYPE svg PUBLIC "-//W3C//DTD SVG 1.1//EN" "http://www.w3.org/Graphics/SVG/1.1/DTD/svg11.dtd">
<svg version="1.1" id="Layer_1" xmlns="http://www.w3.org/2000/svg" xmlns:xlink="http://www.w3.org/1999/xlink" x="0px" y="0px"
	 width="31.988px" height="31.988px" viewBox="0 0 31.988 31.988" style="enable-background:new 0 0 31.988 31.988;"
	 xml:space="preserve">
<g id="Leafs">
	<g>
		<path style="fill:#75A64B;" d="M31.709,0.279c-0.373-0.372-0.978-0.372-1.351,0l-7.414,7.41l2.935-5.278
			c0.254-0.456,0.104-1.039-0.336-1.303s-1.002-0.107-1.256,0.35l-6.178,11.111c-0.097,0.173-0.117,0.363-0.104,0.549
			c-0.005,0.156,0.017,0.313,0.103,0.458c0.147,0.246,0.403,0.383,0.681,0.416c0.003,0,0.006,0,0.009,0
			c0.199,0.022,0.407-0.001,0.598-0.106l11.12-6.219c0.457-0.255,0.621-0.808,0.368-1.233c-0.254-0.427-0.83-0.565-1.287-0.31
			l-5.416,3.028l7.528-7.523C32.082,1.257,32.082,0.652,31.709,0.279z M21.206,10.816l0.069-0.125
			c0.003,0.003,0.003,0.007,0.006,0.009c0.018,0.018,0.041,0.024,0.061,0.04L21.206,10.816z"/>
	</g>
</g>
<g id="Body_1_">
	<g>
		<path style="fill:#FB8512;" d="M25.495,10.731c-1.412-1.412-2.118-2.118-2.118-2.118s-0.707-0.707-2.119-2.119
			S18.379,3.723,14.9,7.2C13.422,8.679,0.775,26.975,0.775,26.975s-1.744,2.494,0,4.238s4.237,0,4.237,0
			s18.298-12.646,19.776-14.125C28.267,13.61,26.907,12.144,25.495,10.731z"/>
	</g>
</g>
<g id="Stripes">
	<g>
		<path style="fill:#AB6017;" d="M8.638,16.278c-0.079-0.079-0.172-0.133-0.268-0.178c-0.359,0.509-0.72,1.021-1.079,1.53
			l2.069,2.074c0.373,0.373,0.978,0.373,1.35,0c0.373-0.373,0.373-0.978,0-1.351L8.638,16.278z M7.638,23.277
			c-0.372-0.372-0.977-0.372-1.349,0c-0.373,0.373-0.373,0.978,0,1.351l1.072,1.076c0.372,0.373,0.977,0.373,1.349,0
			c0.373-0.372,0.373-0.977,0-1.35L7.638,23.277z M17.71,14.705c0.373-0.372,0.373-0.977,0-1.35l-4.072-4.076
			c-0.073-0.074-0.16-0.121-0.248-0.165c-0.332,0.445-0.704,0.953-1.106,1.507c0.002,0.002,0.003,0.006,0.006,0.008l4.071,4.076
			C16.733,15.078,17.338,15.078,17.71,14.705z M25.71,13.355l-4.072-4.077c-0.372-0.372-0.977-0.372-1.349,0
			c-0.373,0.373-0.373,0.978,0,1.351l4.072,4.076c0.372,0.373,0.977,0.373,1.349,0C26.083,14.333,26.083,13.729,25.71,13.355z
			 M16.289,19.278c-0.373,0.372-0.373,0.977,0,1.35l1.582,1.586c0.541-0.384,1.067-0.76,1.575-1.123l-1.809-1.813
			C17.266,18.905,16.661,18.905,16.289,19.278z"/>
	</g>
</g>
<g>
</g>
<g>
</g>
<g>
</g>
<g>
</g>
<g>
</g>
<g>
</g>
<g>
</g>
<g>
</g>
<g>
</g>
<g>
</g>
<g>
</g>
<g>
</g>
<g>
</g>
<g>
</g>
<g>
</g>
</svg>
