<?xml version="1.0" encoding="iso-8859-1"?>
<!-- Generator: Adobe Illustrator 16.0.0, SVG Export Plug-In . SVG Version: 6.00 Build 0)  -->
<!DOCTYPE svg PUBLIC "-//W3C//DTD SVG 1.1//EN" "http://www.w3.org/Graphics/SVG/1.1/DTD/svg11.dtd">
<svg version="1.1" id="Layer_1" xmlns="http://www.w3.org/2000/svg" xmlns:xlink="http://www.w3.org/1999/xlink" x="0px" y="0px"
	 width="32px" height="32px" viewBox="0 0 32 32" style="enable-background:new 0 0 32 32;" xml:space="preserve">
<g id="Handles">
	<g>
		<path style="fill:#E6B85C;" d="M28,2c-3.5,0-4,3-4,4s0,2,1,2s1-1,1-2s0.5-2,2-2s2,1,2,2c0,5-6,8-9,8H11c-3,0-9-3-9-8
			c0-1,0.5-2,2-2s2,1,2,2s0,2,1,2s1-1,1-2S7.5,2,4,2C1.5,2,0,4,0,6c0,6,7,10,11,10h10c4,0,11-4,11-10C32,4,30.5,2,28,2z"/>
	</g>
</g>
<g id="Cup">
	<g>
		<path style="fill:#FFCC66;" d="M25,2c0-1,0-2-1-2S9,0,8,0S7,1,7,2c0,17,7,15,7,17v2c0,2-3,1-3,3h10c0-2-3-1-3-3v-2
			C18,17,25,19,25,2z"/>
	</g>
</g>
<g id="Stand">
	<g>
		<path style="fill:#666666;" d="M25,26H7c-0.553,0-1,0.447-1,1v4c0,0.552,0.447,1,1,1h18c0.553,0,1-0.448,1-1v-4
			C26,26.447,25.553,26,25,26z"/>
	</g>
</g>
<g id="Plate">
	<g>
		<rect x="11" y="28" style="fill:#E6E6E6;" width="10" height="2"/>
	</g>
</g>
<g id="Base_1_">
	<g>
		<path style="fill-rule:evenodd;clip-rule:evenodd;fill:#E6B85C;" d="M21,24H11c0,0-3,0-3,2h16C24,24,21,24,21,24z M14,21h4
			c0.553,0,1-0.448,1-1c0-0.553-0.447-1-1-1h-4c-0.553,0-1,0.447-1,1C13,20.552,13.447,21,14,21z"/>
	</g>
</g>
<g id="_x31_">
	<g>
		<path style="fill-rule:evenodd;clip-rule:evenodd;fill:#CCA352;" d="M18,10h-1V5V3.999V3h-1c-0.352,0-0.646,0.191-0.824,0.466
			l-1.892,1.892c-0.374,0.375-0.374,0.982,0,1.357c0.375,0.375,0.983,0.375,1.358,0L15,6.357V10h-1c-0.553,0-1,0.447-1,1
			c0,0.552,0.447,1,1,1h4c0.552,0,1-0.448,1-1C19,10.447,18.552,10,18,10z"/>
	</g>
</g>
<g>
</g>
<g>
</g>
<g>
</g>
<g>
</g>
<g>
</g>
<g>
</g>
<g>
</g>
<g>
</g>
<g>
</g>
<g>
</g>
<g>
</g>
<g>
</g>
<g>
</g>
<g>
</g>
<g>
</g>
</svg>
