<?xml version="1.0" encoding="iso-8859-1"?>
<!-- Generator: Adobe Illustrator 16.0.0, SVG Export Plug-In . SVG Version: 6.00 Build 0)  -->
<!DOCTYPE svg PUBLIC "-//W3C//DTD SVG 1.1//EN" "http://www.w3.org/Graphics/SVG/1.1/DTD/svg11.dtd">
<svg version="1.1" id="Layer_1" xmlns="http://www.w3.org/2000/svg" xmlns:xlink="http://www.w3.org/1999/xlink" x="0px" y="0px"
	 width="28px" height="32.001px" viewBox="0 0 28 32.001" style="enable-background:new 0 0 28 32.001;" xml:space="preserve">
<g id="File">
	<g>
		<path style="fill:#CCCCCC;" d="M26,0H2C0.896,0,0,0.896,0,2.001V28c0,1.104,0.896,2,2,2h17l9-9V2.001C28,0.896,27.104,0,26,0z"/>
	</g>
</g>
<g id="Container">
	<g>
		<path style="fill:#FFFFFF;" d="M25,2.001H3C2.447,2.001,2,2.448,2,3v24c0,0.553,0.447,1,1,1h15l8-8V3
			C26,2.448,25.552,2.001,25,2.001z"/>
	</g>
</g>
<g id="Corner">
	<g>
		<path style="fill:#999999;" d="M21,21c-1.104,0-2,0.896-2,2v7l9-9H21z"/>
	</g>
</g>
<g id="Text">
	<g>
		<path style="fill-rule:evenodd;clip-rule:evenodd;fill:#CCCCCC;" d="M21,14.001H7c-0.553,0-1,0.447-1,0.999c0,0.553,0.447,1,1,1
			h14c0.552,0,1-0.447,1-1C22,14.448,21.552,14.001,21,14.001z M7,12h8c0.552,0,1-0.447,1-1c0-0.552-0.448-1-1-1H7
			c-0.553,0-1,0.448-1,1C6,11.553,6.447,12,7,12z M7,8h14c0.552,0,1-0.447,1-0.999C22,6.448,21.552,6,21,6H7
			C6.447,6,6,6.448,6,7.001C6,7.553,6.447,8,7,8z"/>
	</g>
</g>
<g id="Ribbon">
	<g>
		<polygon style="fill:#ED7161;" points="8,25.001 8,32.001 10,30.001 12,32.001 12,25.001 		"/>
	</g>
</g>
<g id="Elipse_2_">
	<g>
		<circle style="fill:#FFD073;" cx="10" cy="22.001" r="4"/>
	</g>
</g>
<g>
</g>
<g>
</g>
<g>
</g>
<g>
</g>
<g>
</g>
<g>
</g>
<g>
</g>
<g>
</g>
<g>
</g>
<g>
</g>
<g>
</g>
<g>
</g>
<g>
</g>
<g>
</g>
<g>
</g>
</svg>
