<?xml version="1.0" encoding="iso-8859-1"?>
<!-- Generator: Adobe Illustrator 16.0.0, SVG Export Plug-In . SVG Version: 6.00 Build 0)  -->
<!DOCTYPE svg PUBLIC "-//W3C//DTD SVG 1.1//EN" "http://www.w3.org/Graphics/SVG/1.1/DTD/svg11.dtd">
<svg version="1.1" id="Layer_1" xmlns="http://www.w3.org/2000/svg" xmlns:xlink="http://www.w3.org/1999/xlink" x="0px" y="0px"
	 width="32px" height="32px" viewBox="0 0 32 32" style="enable-background:new 0 0 32 32;" xml:space="preserve">
<g id="Envelope">
	<g>
		<path style="fill:#FFCC66;" d="M0,0v30c0,1.104,0.896,2,2,2h28c1.104,0,2-0.896,2-2V0H0z"/>
	</g>
</g>
<g id="Envelope_1_">
	<g>
		<path style="fill:#CCA352;" d="M0,0c0,0,0.416,8,3,8h26c2.584,0,3-8,3-8H0z"/>
	</g>
</g>
<g id="String_1_">
	<g>
		<polygon style="fill-rule:evenodd;clip-rule:evenodd;fill:#997A3D;" points="18,4 17,4 16,6.667 15,4 14,4 15.5,8 14,12 15,12 
			16,9.333 17,12 18,12 16.5,8 		"/>
	</g>
</g>
<g id="Elipse">
	<g>
		<circle style="fill:#FFFFFF;" cx="16" cy="12" r="2"/>
	</g>
</g>
<g id="Elipse_1_">
	<g>
		<circle style="fill:#FFFFFF;" cx="16" cy="4" r="2"/>
	</g>
</g>
<g>
</g>
<g>
</g>
<g>
</g>
<g>
</g>
<g>
</g>
<g>
</g>
<g>
</g>
<g>
</g>
<g>
</g>
<g>
</g>
<g>
</g>
<g>
</g>
<g>
</g>
<g>
</g>
<g>
</g>
</svg>
