<?xml version="1.0" encoding="iso-8859-1"?>
<!-- Generator: Adobe Illustrator 16.0.0, SVG Export Plug-In . SVG Version: 6.00 Build 0)  -->
<!DOCTYPE svg PUBLIC "-//W3C//DTD SVG 1.1//EN" "http://www.w3.org/Graphics/SVG/1.1/DTD/svg11.dtd">
<svg version="1.1" id="Layer_1" xmlns="http://www.w3.org/2000/svg" xmlns:xlink="http://www.w3.org/1999/xlink" x="0px" y="0px"
	 width="30px" height="32px" viewBox="0 0 30 32" style="enable-background:new 0 0 30 32;" xml:space="preserve">
<g id="Binocular">
	<g>
		<path style="fill-rule:evenodd;clip-rule:evenodd;fill:#999999;" d="M2,24h8v-2H2V24z M13,3c0-0.553-0.448-1-1-1H6
			C5.447,2,5,2.447,5,3v2c0,0.552,0.447,1,1,1h6c0.552,0,1-0.448,1-1V3z M20,22v2h8v-2H20z M25,5V3c0-0.553-0.448-1-1-1h-6
			c-0.553,0-1,0.447-1,1v2c0,0.552,0.447,1,1,1h6C24.552,6,25,5.552,25,5z M16,10h-2c-0.553,0-1,0.447-1,1v8c0,0.552,0.447,1,1,1h2
			c0.552,0,1-0.448,1-1v-8C17,10.447,16.552,10,16,10z"/>
	</g>
</g>
<g id="Binocular_1_">
	<g>
		<path style="fill-rule:evenodd;clip-rule:evenodd;fill:#666666;" d="M1,24l-1,6c0,1.104,0.896,2,2,2h8c1.104,0,2-0.896,2-2l-1-6H1
			z M10,0H8C6.896,0,6,0.896,6,2h6C12,0.896,11.104,0,10,0z M19,24l-1,6c0,1.104,0.896,2,2,2h8c1.104,0,2-0.896,2-2l-1-6H19z M22,0
			h-2c-1.104,0-2,0.896-2,2h6C24,0.896,23.104,0,22,0z M12,8V6H6v2H3C2.447,8,2,8.447,2,9L0,21c0,0.552,0.447,1,1,1h11
			c0.552,0,1-0.448,1-1V9C13,8.447,12.552,8,12,8z M29,22c0.552,0,1-0.448,1-1L28,9c0-0.553-0.448-1-1-1h-3V6h-6v2
			c-0.553,0-1,0.447-1,1v12c0,0.552,0.447,1,1,1H29z"/>
	</g>
</g>
<g>
</g>
<g>
</g>
<g>
</g>
<g>
</g>
<g>
</g>
<g>
</g>
<g>
</g>
<g>
</g>
<g>
</g>
<g>
</g>
<g>
</g>
<g>
</g>
<g>
</g>
<g>
</g>
<g>
</g>
</svg>
