<?xml version="1.0" encoding="iso-8859-1"?>
<!-- Generator: Adobe Illustrator 16.0.0, SVG Export Plug-In . SVG Version: 6.00 Build 0)  -->
<!DOCTYPE svg PUBLIC "-//W3C//DTD SVG 1.1//EN" "http://www.w3.org/Graphics/SVG/1.1/DTD/svg11.dtd">
<svg version="1.1" id="Layer_1" xmlns="http://www.w3.org/2000/svg" xmlns:xlink="http://www.w3.org/1999/xlink" x="0px" y="0px"
	 width="32px" height="30.001px" viewBox="0 0 32 30.001" style="enable-background:new 0 0 32 30.001;" xml:space="preserve">
<g id="Folder">
	<g>
		<path style="fill-rule:evenodd;clip-rule:evenodd;fill:#CCA352;" d="M30,2H12c0-1.104-0.896-2-2-2H2C0.896,0,0,0.896,0,2v2v3.001
			V8c0,1.105,0.896,2.001,2,2.001h28c1.104,0,2-0.896,2-2.001V4C32,2.896,31.104,2,30,2z"/>
	</g>
</g>
<g id="File_1_">
	<g>
		<path style="fill:#FFFFFF;" d="M28,4H4C2.896,4,2,4.896,2,6v2c0,1.105,0.896,2.001,2,2.001h24c1.104,0,2-0.896,2-2.001V6
			C30,4.896,29.104,4,28,4z"/>
	</g>
</g>
<g id="Folder_1_">
	<g>
		<path style="fill:#FFCC66;" d="M30,6H2C0.896,6,0,6.896,0,8v20.001c0,1.104,0.896,2,2,2h28c1.104,0,2-0.896,2-2V8
			C32,6.896,31.104,6,30,6z"/>
	</g>
</g>
<g>
</g>
<g>
</g>
<g>
</g>
<g>
</g>
<g>
</g>
<g>
</g>
<g>
</g>
<g>
</g>
<g>
</g>
<g>
</g>
<g>
</g>
<g>
</g>
<g>
</g>
<g>
</g>
<g>
</g>
</svg>
