<?xml version="1.0" encoding="iso-8859-1"?>
<!-- Generator: Adobe Illustrator 16.0.0, SVG Export Plug-In . SVG Version: 6.00 Build 0)  -->
<!DOCTYPE svg PUBLIC "-//W3C//DTD SVG 1.1//EN" "http://www.w3.org/Graphics/SVG/1.1/DTD/svg11.dtd">
<svg version="1.1" id="Layer_1" xmlns="http://www.w3.org/2000/svg" xmlns:xlink="http://www.w3.org/1999/xlink" x="0px" y="0px"
	 width="32px" height="30.001px" viewBox="0 0 32 30.001" style="enable-background:new 0 0 32 30.001;" xml:space="preserve">
<g id="Folder">
	<g>
		<path style="fill-rule:evenodd;clip-rule:evenodd;fill:#BA594C;" d="M30,2H12c0-1.104-0.896-2-2-2H2C0.896,0,0,0.896,0,2v2v3
			v1.001c0,1.104,0.896,2,2,2h28c1.104,0,2-0.896,2-2V4C32,2.896,31.104,2,30,2z"/>
	</g>
</g>
<g id="File">
	<g>
		<path style="fill:#FFFFFF;" d="M28,4H4C2.896,4,2,4.896,2,6v2.001c0,1.104,0.896,2,2,2h24c1.104,0,2-0.896,2-2V6
			C30,4.896,29.104,4,28,4z"/>
	</g>
</g>
<g id="Folder_1_">
	<g>
		<path style="fill:#ED7261;" d="M30,6H2C0.896,6,0,6.896,0,8.001V28c0,1.105,0.896,2.001,2,2.001h28c1.104,0,2-0.896,2-2.001V8.001
			C32,6.896,31.104,6,30,6z"/>
	</g>
</g>
<g id="Heart">
	<g>
		<path style="fill-rule:evenodd;clip-rule:evenodd;fill:#FFFFFF;" d="M23.005,15.634c0-2.014-1.666-3.646-3.722-3.646
			c-1.433,0-2.661,0.802-3.283,1.964c-0.622-1.163-1.852-1.964-3.284-1.964c-2.055,0-3.721,1.632-3.721,3.646
			c0,1.12,0.526,2.109,1.337,2.778l-0.023,0.011c0,0,4.73,4.958,5.072,5.312s0.896,0.354,1.238,0s5.072-5.312,5.072-5.312
			l-0.023-0.011C22.479,17.743,23.005,16.754,23.005,15.634z"/>
	</g>
</g>
<g>
</g>
<g>
</g>
<g>
</g>
<g>
</g>
<g>
</g>
<g>
</g>
<g>
</g>
<g>
</g>
<g>
</g>
<g>
</g>
<g>
</g>
<g>
</g>
<g>
</g>
<g>
</g>
<g>
</g>
</svg>
