<?xml version="1.0" encoding="iso-8859-1"?>
<!-- Generator: Adobe Illustrator 16.0.0, SVG Export Plug-In . SVG Version: 6.00 Build 0)  -->
<!DOCTYPE svg PUBLIC "-//W3C//DTD SVG 1.1//EN" "http://www.w3.org/Graphics/SVG/1.1/DTD/svg11.dtd">
<svg version="1.1" id="Layer_1" xmlns="http://www.w3.org/2000/svg" xmlns:xlink="http://www.w3.org/1999/xlink" x="0px" y="0px"
	 width="32px" height="28px" viewBox="0 0 32 28" style="enable-background:new 0 0 32 28;" xml:space="preserve">
<g id="Helmet">
	<g>
		<path style="fill:#48A0DC;" d="M28,9c0-2-5-9-13-9S0,6,0,14s7,14,8,14s2-2,4-2s3,1,6,1c2,0,3-2,3-4s-2-3-2-7S28,11,28,9z"/>
	</g>
</g>
<g id="Helmet_1_">
	<g>
		<circle style="fill:#51B3F5;" cx="14" cy="18" r="4"/>
	</g>
</g>
<g id="Hole">
	<g>
		<circle style="fill:#666666;" cx="14" cy="18" r="2"/>
	</g>
</g>
<g id="Mask">
	<g>
		<path style="fill-rule:evenodd;clip-rule:evenodd;fill:#666666;" d="M22,16l-1-3c0,0,9-3.5,9-4s-0.5-1-1-1s-9,3-10,4s-4,8-4,9
			s7,1,7,1s1.367,2.735,2,4c1,2,2,2,6,2c1,0,2-4,2-11C32,16.5,27,16,22,16z M18,19c0-1,1-4,1-4l2,5C21,20,18,20,18,19z M30,19
			c0,0.349-0.006,0.68-0.015,1h-6.171C23.344,18.857,23,18,23,18C27,18,30,18,30,19z M26,25c-0.365-0.729-0.863-1.859-1.349-3h5.211
			C29.589,24.813,29,26,29,26S26.447,25.895,26,25z"/>
	</g>
</g>
<g id="Strap">
	<g>
		<path style="fill:#CCCCCC;" d="M16,14c-1,0-1,0.5-1,1c0,1,3,2,3,2l1-2C19,15,17,14,16,14z"/>
	</g>
</g>
<g>
</g>
<g>
</g>
<g>
</g>
<g>
</g>
<g>
</g>
<g>
</g>
<g>
</g>
<g>
</g>
<g>
</g>
<g>
</g>
<g>
</g>
<g>
</g>
<g>
</g>
<g>
</g>
<g>
</g>
</svg>
