<?xml version="1.0" encoding="iso-8859-1"?>
<!-- Generator: Adobe Illustrator 16.0.0, SVG Export Plug-In . SVG Version: 6.00 Build 0)  -->
<!DOCTYPE svg PUBLIC "-//W3C//DTD SVG 1.1//EN" "http://www.w3.org/Graphics/SVG/1.1/DTD/svg11.dtd">
<svg version="1.1" id="Layer_1" xmlns="http://www.w3.org/2000/svg" xmlns:xlink="http://www.w3.org/1999/xlink" x="0px" y="0px"
	 width="32px" height="32px" viewBox="0 0 32 32" style="enable-background:new 0 0 32 32;" xml:space="preserve">
<g id="Ball">
	<g>
		<path style="fill:#A67C52;" d="M27,0C11,0,0,11,0,27c0,5,0,5,5,5c16,0,27-11,27-27C32,0,32,0,27,0z"/>
	</g>
</g>
<g id="Ball_1_">
	<g>
		<path style="fill:#8C6845;" d="M31,1L1,31c1,1,2,1,4,1c16,0,27-11,27-27C32,3,32,2,31,1z"/>
	</g>
</g>
<g id="Lines">
	<g>
		<path style="fill-rule:evenodd;clip-rule:evenodd;fill:#E6E6E6;" d="M28,4c-2.248-2.248-3.934-3.372-4.638-3.795
			c-1.413,0.155-2.779,0.402-4.092,0.736C20.914,1.782,23.308,3.309,26,6c2.598,2.598,4.109,5.188,4.968,7.085
			c0.38-1.422,0.657-2.906,0.827-4.447C31.373,7.934,30.248,6.248,28,4z M1.032,18.915c-0.38,1.422-0.657,2.906-0.827,4.447
			C0.627,24.066,1.752,25.752,4,28s3.934,3.372,4.638,3.795c1.413-0.155,2.779-0.402,4.092-0.736C11.086,30.218,8.692,28.691,6,26
			C3.402,23.402,1.891,20.812,1.032,18.915z"/>
	</g>
</g>
<g id="Lace">
	<g>
		<path style="fill:#CCCCCC;" d="M22,9C21.5,9,9,21.5,9,22s0.5,1,1,1s13-12.5,13-13S22.5,9,22,9z"/>
	</g>
</g>
<g id="Lace_1_">
	<g>
		<path style="fill-rule:evenodd;clip-rule:evenodd;fill:#FFFFFF;" d="M19,9c-0.5,0-1,0.5-1,1s3.5,4,4,4s1-0.5,1-1S19.5,9,19,9z
			 M16,12c-0.5,0-1,0.5-1,1s3.5,4,4,4s1-0.5,1-1S16.5,12,16,12z M13,15c-0.5,0-1,0.5-1,1s3.5,4,4,4s1-0.5,1-1S13.5,15,13,15z M10,18
			c-0.5,0-1,0.5-1,1s3.5,4,4,4s1-0.5,1-1S10.5,18,10,18z"/>
	</g>
</g>
<g>
</g>
<g>
</g>
<g>
</g>
<g>
</g>
<g>
</g>
<g>
</g>
<g>
</g>
<g>
</g>
<g>
</g>
<g>
</g>
<g>
</g>
<g>
</g>
<g>
</g>
<g>
</g>
<g>
</g>
</svg>
