<?xml version="1.0" encoding="iso-8859-1"?>
<!-- Generator: Adobe Illustrator 16.0.0, SVG Export Plug-In . SVG Version: 6.00 Build 0)  -->
<!DOCTYPE svg PUBLIC "-//W3C//DTD SVG 1.1//EN" "http://www.w3.org/Graphics/SVG/1.1/DTD/svg11.dtd">
<svg version="1.1" id="Layer_1" xmlns="http://www.w3.org/2000/svg" xmlns:xlink="http://www.w3.org/1999/xlink" x="0px" y="0px"
	 width="33px" height="32.001px" viewBox="0 0 33 32.001" style="enable-background:new 0 0 33 32.001;" xml:space="preserve">
<g id="Red">
	<g>
		<path style="fill:#D46557;" d="M16,7.001c-1.104,0-2,0.447-2,1v16c0,0.553,0.896,1,2,1c0.188,0,14-1,14-1V6L16,7.001z"/>
	</g>
</g>
<g id="Yellow">
	<g>
		<path style="fill-rule:evenodd;clip-rule:evenodd;fill:#E6B85C;" d="M14,20.001v4c0,0.553,0.896,1,2,1c0.188,0,14-1,14-1v-4.842
			L14,20.001z"/>
	</g>
</g>
<g id="Black">
	<g>
		<path style="fill-rule:evenodd;clip-rule:evenodd;fill:#1A1A1A;" d="M30,6L16,7.001c-1.104,0-2,0.447-2,1v6l16-0.842V6z"/>
	</g>
</g>
<g id="Back">
	<g>
		<path style="fill:#B38F47;" d="M14,18.001v4v2c0-0.553,0.896-1,2-1s2-0.448,2-1v-4H14z"/>
	</g>
</g>
<g id="Yellow_1_">
	<g>
		<path style="fill:#FFCC66;" d="M16,15.001c-0.271,0-10,1-10,1v6c0,0,9.729-1,10-1c1.104,0,2,0.446,2,1v-6
			C18,15.448,17.104,15.001,16,15.001z"/>
	</g>
</g>
<g id="Red_1_">
	<g>
		<path style="fill:#ED7161;" d="M16,9.001c-0.271,0-10,1-10,1v6c0,0,9.729-1,10-1c1.104,0,2,0.446,2,1v-6
			C18,9.448,17.104,9.001,16,9.001z"/>
	</g>
</g>
<g id="Black_1_">
	<g>
		<path style="fill:#333333;" d="M16,3.001c-0.271,0-10,1-10,1v6c0,0,9.729-1,10-1c1.104,0,2,0.447,2,1v-6
			C18,3.448,17.104,3.001,16,3.001z"/>
	</g>
</g>
<g id="Pole">
	<g>
		<path style="fill-rule:evenodd;clip-rule:evenodd;fill:#CCCCCC;" d="M9,30H6V3.724C6.595,3.377,7,2.738,7,2c0-1.104-0.896-2-2-2
			S3,0.896,3,2c0,0.738,0.405,1.377,1,1.724V30H1c-0.553,0-1,0.448-1,1.001c0,0.552,0.447,1,1,1h8c0.552,0,1-0.448,1-1
			C10,30.448,9.552,30,9,30z"/>
	</g>
</g>
<g>
</g>
<g>
</g>
<g>
</g>
<g>
</g>
<g>
</g>
<g>
</g>
<g>
</g>
<g>
</g>
<g>
</g>
<g>
</g>
<g>
</g>
<g>
</g>
<g>
</g>
<g>
</g>
<g>
</g>
</svg>
