<?xml version="1.0" encoding="iso-8859-1"?>
<!-- Generator: Adobe Illustrator 16.0.0, SVG Export Plug-In . SVG Version: 6.00 Build 0)  -->
<!DOCTYPE svg PUBLIC "-//W3C//DTD SVG 1.1//EN" "http://www.w3.org/Graphics/SVG/1.1/DTD/svg11.dtd">
<svg version="1.1" id="Layer_1" xmlns="http://www.w3.org/2000/svg" xmlns:xlink="http://www.w3.org/1999/xlink" x="0px" y="0px"
	 width="32px" height="23.999px" viewBox="0 0 32 23.999" style="enable-background:new 0 0 32 23.999;" xml:space="preserve">
<g id="BTNs">
	<g>
		<path style="fill-rule:evenodd;clip-rule:evenodd;fill:#B3B3B3;" d="M3,16H1c-0.553,0-1,0.447-1,1v2c0,0.552,0.447,1,1,1h2
			c0.552,0,1-0.448,1-1v-2C4,16.447,3.552,16,3,16z M10,0H8C7.447,0,7,0.447,7,0.999V3c0,0.552,0.447,1,1,1h2c0.552,0,1-0.448,1-1
			V0.999C11,0.447,10.552,0,10,0z"/>
	</g>
</g>
<g id="Body_4_">
	<g>
		<path style="fill:#CCCCCC;" d="M30,2H4C2.896,2,2,2.895,2,4v18c0,1.104,0.896,1.999,2,1.999h26c1.104,0,2-0.895,2-1.999V4
			C32,2.895,31.104,2,30,2z"/>
	</g>
</g>
<g id="Display">
	<g>
		<rect x="6" y="4.999" style="fill:#859D70;" width="6" height="8.001"/>
	</g>
</g>
<g id="BTn">
	<g>
		<circle style="fill:#FFFFFF;" cx="8" cy="18" r="2"/>
	</g>
</g>
<g id="LED">
	<g>
		<circle style="fill:#B3B3B3;" cx="13" cy="16" r="1"/>
	</g>
</g>
<g id="Rec_LED">
	<g>
		<circle style="fill:#ED7161;" cx="13" cy="20" r="1"/>
	</g>
</g>
<g id="Lens_Frame">
	<g>
		<path style="fill:#4D4D4D;" d="M31,0.999H17c-0.553,0-1,0.448-1,1.001v14c0,0.552,0.447,1,1,1h14c0.552,0,1-0.448,1-1V2
			C32,1.447,31.552,0.999,31,0.999z"/>
	</g>
</g>
<g id="Lens_Body">
	<g>
		<rect x="18" y="3" style="fill:#666666;" width="12" height="12"/>
	</g>
</g>
<g id="Lens">
	<g>
		<circle style="fill:#4D4D4D;" cx="24" cy="9" r="4"/>
	</g>
</g>
<g id="Lens_1_">
	<g>
		<circle style="fill:#333333;" cx="24" cy="8.999" r="1"/>
	</g>
</g>
<g>
</g>
<g>
</g>
<g>
</g>
<g>
</g>
<g>
</g>
<g>
</g>
<g>
</g>
<g>
</g>
<g>
</g>
<g>
</g>
<g>
</g>
<g>
</g>
<g>
</g>
<g>
</g>
<g>
</g>
</svg>
