<?xml version="1.0" encoding="iso-8859-1"?>
<!-- Generator: Adobe Illustrator 16.0.0, SVG Export Plug-In . SVG Version: 6.00 Build 0)  -->
<!DOCTYPE svg PUBLIC "-//W3C//DTD SVG 1.1//EN" "http://www.w3.org/Graphics/SVG/1.1/DTD/svg11.dtd">
<svg version="1.1" id="Layer_1" xmlns="http://www.w3.org/2000/svg" xmlns:xlink="http://www.w3.org/1999/xlink" x="0px" y="0px"
	 width="32px" height="32px" viewBox="0 0 32 32" style="enable-background:new 0 0 32 32;" xml:space="preserve">
<g id="Base">
	<g>
		<path style="fill:#CC6D29;" d="M24,30H8c-0.553,0-1,0.447-1,1c0,0.552,0.447,1,1,1h16c0.553,0,1-0.448,1-1
			C25,30.447,24.553,30,24,30z"/>
	</g>
</g>
<g id="Jar">
	<g>
		<path style="fill:#FF8833;" d="M24,6H8c-2.666,3.277-5,6.884-5,12s2.334,8.723,5,12h16c2.665-3.277,5-6.884,5-12
			S26.665,9.277,24,6z"/>
	</g>
</g>
<g id="Cover">
	<g>
		<path style="fill:#E6E6E6;" d="M25,5H7c-5.011,2.749-7,3.721-7,5s2.235,2,4,2s2.971-2,5-2s4.015,1,6,1s2.029-2,3-2s2.015,4,4,4
			s3.073-4,4-4c0.926,0,1.206,2,2,2s4-0.235,4-2S25,5,25,5z"/>
	</g>
</g>
<g id="Cover_1_">
	<g>
		<path style="fill:#CCCCCC;" d="M23,0H9C7.896,0,7,0.896,7,2v2h18V2C25,0.896,24.104,0,23,0z"/>
	</g>
</g>
<g id="String">
	<g>
		<rect x="7" y="3" style="fill:#999999;" width="18" height="2"/>
	</g>
</g>
<g id="Content">
	<g>
		<path style="fill-rule:evenodd;clip-rule:evenodd;fill:#E67A2E;" d="M10,17c-0.553,0-1,0.447-1,1c0,0.552,0.447,1,1,1
			c0.552,0,1-0.448,1-1C11,17.447,10.552,17,10,17z M13,16c0.552,0,1-0.448,1-1c0-0.553-0.448-1-1-1c-0.553,0-1,0.447-1,1
			C12,15.552,12.447,16,13,16z M14,20c-0.553,0-1,0.447-1,1c0,0.552,0.447,1,1,1s1-0.448,1-1C15,20.447,14.553,20,14,20z M18,15
			c-0.553,0-1,0.447-1,1c0,0.552,0.447,1,1,1s1-0.448,1-1C19,15.447,18.553,15,18,15z M21,19c-0.553,0-1,0.447-1,1
			c0,0.552,0.447,1,1,1s1-0.448,1-1C22,19.447,21.553,19,21,19z M24,16c-0.553,0-1,0.447-1,1c0,0.552,0.447,1,1,1s1-0.448,1-1
			C25,16.447,24.553,16,24,16z M9,22c-0.553,0-1,0.447-1,1c0,0.552,0.447,1,1,1s1-0.448,1-1C10,22.447,9.553,22,9,22z M13,25
			c-0.553,0-1,0.447-1,1c0,0.552,0.447,1,1,1c0.552,0,1-0.448,1-1C14,25.447,13.552,25,13,25z M18,26c-0.553,0-1,0.447-1,1
			c0,0.552,0.447,1,1,1s1-0.448,1-1C19,26.447,18.553,26,18,26z M18,22c-0.553,0-1,0.447-1,1c0,0.552,0.447,1,1,1s1-0.448,1-1
			C19,22.447,18.553,22,18,22z M23,23c-0.553,0-1,0.447-1,1c0,0.552,0.447,1,1,1s1-0.448,1-1C24,23.447,23.553,23,23,23z M9,14
			c0-0.553-0.448-1-1-1c-0.553,0-1,0.447-1,1c0,0.552,0.447,1,1,1C8.552,15,9,14.552,9,14z"/>
	</g>
</g>
<g>
</g>
<g>
</g>
<g>
</g>
<g>
</g>
<g>
</g>
<g>
</g>
<g>
</g>
<g>
</g>
<g>
</g>
<g>
</g>
<g>
</g>
<g>
</g>
<g>
</g>
<g>
</g>
<g>
</g>
</svg>
