<?xml version="1.0" encoding="iso-8859-1"?>
<!-- Generator: Adobe Illustrator 16.0.0, SVG Export Plug-In . SVG Version: 6.00 Build 0)  -->
<!DOCTYPE svg PUBLIC "-//W3C//DTD SVG 1.1//EN" "http://www.w3.org/Graphics/SVG/1.1/DTD/svg11.dtd">
<svg version="1.1" id="Layer_1" xmlns="http://www.w3.org/2000/svg" xmlns:xlink="http://www.w3.org/1999/xlink" x="0px" y="0px"
	 width="31.999px" height="27.998px" viewBox="0 0 31.999 27.998" style="enable-background:new 0 0 31.999 27.998;"
	 xml:space="preserve">
<g id="Meet">
	<g>
		<path style="fill:#ECD0B4;" d="M23.435,4.59c0,0-3.729,0.263-5.852,1.377s-4.951,0.853-5.852-0.918C10.832,3.278,9.481,0,6.331,0
			C3.18,0,0.029,4,0.029,10.098c0,0-1.351,17.9,14.403,17.9s17.554-11.999,17.554-13.311S32.694,4.59,23.435,4.59z"/>
	</g>
</g>
<g id="Meet_1_">
	<g>
		<path style="fill:#ED7161;" d="M22.506,6.933c0,0-3.264,1.225-5.12,2.18c-1.857,0.956-6.333-0.27-7.12-1.786
			c-0.788-1.518-0.97-5.328-3.727-5.328s-4.514,3.429-4.514,8.655c0,0-1.182,15.344,12.604,15.344
			c13.784,0,15.359-10.285,15.359-11.409C29.988,13.463,30.607,6.933,22.506,6.933z"/>
	</g>
</g>
<g id="Stripes_3_">
	<g>
		<path style="fill-rule:evenodd;clip-rule:evenodd;fill:#D46557;" d="M10.829,10.171c-0.391-0.391-1.023-0.391-1.414,0
			l-4.242,4.242c-0.391,0.391-0.391,1.023,0,1.414c0.39,0.391,1.023,0.391,1.414,0l4.242-4.242
			C11.22,11.194,11.22,10.562,10.829,10.171z M12.829,14.171c-0.391-0.391-1.023-0.391-1.414,0l-4.242,4.242
			c-0.391,0.391-0.391,1.023,0,1.414s1.023,0.391,1.414,0l4.242-4.242C13.22,15.194,13.22,14.561,12.829,14.171z"/>
	</g>
</g>
<g id="Bone">
	<g>
		<circle style="fill:#FFFFFF;" cx="23.001" cy="14.997" r="4"/>
	</g>
</g>
<g id="Bone_Marrow">
	<g>
		<circle style="fill:#C6B5CF;" cx="23.001" cy="14.995" r="2"/>
	</g>
</g>
<g>
</g>
<g>
</g>
<g>
</g>
<g>
</g>
<g>
</g>
<g>
</g>
<g>
</g>
<g>
</g>
<g>
</g>
<g>
</g>
<g>
</g>
<g>
</g>
<g>
</g>
<g>
</g>
<g>
</g>
</svg>
