<?xml version="1.0" encoding="iso-8859-1"?>
<!-- Generator: Adobe Illustrator 16.0.0, SVG Export Plug-In . SVG Version: 6.00 Build 0)  -->
<!DOCTYPE svg PUBLIC "-//W3C//DTD SVG 1.1//EN" "http://www.w3.org/Graphics/SVG/1.1/DTD/svg11.dtd">
<svg version="1.1" id="Layer_1" xmlns="http://www.w3.org/2000/svg" xmlns:xlink="http://www.w3.org/1999/xlink" x="0px" y="0px"
	 width="20px" height="32px" viewBox="0 0 20 32" style="enable-background:new 0 0 20 32;" xml:space="preserve">
<g id="Body_11_">
	<g>
		<path style="fill:#4D4D4D;" d="M16,0H4C1.791,0,0,1.791,0,4v24c0,2.209,1.791,4,4,4h12c2.209,0,4-1.791,4-4V4
			C20,1.791,18.209,0,16,0z"/>
	</g>
</g>
<g id="Hole_1_">
	<g>
		<ellipse style="fill:#333333;" cx="10" cy="3" rx="6" ry="1"/>
	</g>
</g>
<g id="Apple_Logo">
	<g>
		<path style="fill-rule:evenodd;clip-rule:evenodd;fill:#808080;" d="M12.07,10.986c-0.556,0.02-1.229,0.319-1.628,0.723
			c-0.358,0.357-0.67,0.929-0.587,1.477c0.621,0.042,1.253-0.271,1.639-0.675S12.141,11.546,12.07,10.986z M12.678,16.372
			c-0.012-1.254,1.014-1.855,1.061-1.886c-0.577-0.851-1.476-0.967-1.796-0.979c-0.765-0.079-1.492,0.453-1.881,0.453
			c-0.387,0-0.986-0.443-1.62-0.432c-0.834,0.014-1.603,0.488-2.032,1.242c-0.866,1.515-0.222,3.759,0.623,4.987
			c0.413,0.602,0.904,1.276,1.55,1.252c0.623-0.024,0.858-0.406,1.61-0.406c0.751,0,0.963,0.406,1.621,0.394
			c0.669-0.012,1.093-0.613,1.503-1.216c0.474-0.697,0.668-1.373,0.68-1.407C13.981,18.366,12.692,17.869,12.678,16.372z"/>
	</g>
</g>
<g>
</g>
<g>
</g>
<g>
</g>
<g>
</g>
<g>
</g>
<g>
</g>
<g>
</g>
<g>
</g>
<g>
</g>
<g>
</g>
<g>
</g>
<g>
</g>
<g>
</g>
<g>
</g>
<g>
</g>
</svg>
