<?xml version="1.0" encoding="iso-8859-1"?>
<!-- Generator: Adobe Illustrator 16.0.0, SVG Export Plug-In . SVG Version: 6.00 Build 0)  -->
<!DOCTYPE svg PUBLIC "-//W3C//DTD SVG 1.1//EN" "http://www.w3.org/Graphics/SVG/1.1/DTD/svg11.dtd">
<svg version="1.1" id="Layer_1" xmlns="http://www.w3.org/2000/svg" xmlns:xlink="http://www.w3.org/1999/xlink" x="0px" y="0px"
	 width="32px" height="20px" viewBox="0 0 32 20" style="enable-background:new 0 0 32 20;" xml:space="preserve">
<g id="Tongue">
	<g>
		<path style="fill:#CCCCCC;" d="M11,0C9,0,9,2,9,2v2h6C14,2,12,0,11,0z"/>
	</g>
</g>
<g id="Upper">
	<g>
		<path style="fill:#E6E6E6;" d="M23,12c-2,0-7-7-8-8s-2-2-3-2c0,0-1,0-2,1S7,5,5,5C3.873,5,4.472,5,3,5C2,5,1,5,1,6v2
			c0,1-1,2.996-1,6v3h29v-4C24,12,23,12,23,12z"/>
	</g>
</g>
<g id="Design">
	<g>
		<path style="fill:#D46557;" d="M15,4c-1-1-2-2-3-2c0,0-1,0-2,1c0,0,2,2,3,3c0.707,0.707,0,1,1,2s2,0,3,1c2,2,3,4,6,4v-1
			C21,12,16,5,15,4z"/>
	</g>
</g>
<g id="Design_1_">
	<g>
		<path style="fill-rule:evenodd;clip-rule:evenodd;fill:#ED7161;" d="M17,13c0-2-2-3-2-3s0.095,2-1,2
			c-0.826,0-2.414-0.591-4.203-1.401C11.435,8.513,13.776,6.224,15,5c0,0,0-1-1-2s-2-1-2-1C9.383,4.617,7.047,6.679,5.146,8.286
			C2.83,7.059,1,6,1,6v0.999c0,0,1.296,0.942,3.079,2.181C1.532,11.296,0,12.466,0,13c0,0.965,0,4,0,4h8c0,0,0-0.912,0-3
			c0-0.473,0.252-1.082,0.652-1.758C11.017,13.751,13.21,15,14,15C15,15,17,15,17,13z M29,13c0,0-1,2-4,2c-1,0-1-1-1-2c0,0,0-1-1-1
			s-2,1-3,2s-4,3-4,3h15v-2C31,13,29,13,29,13z"/>
	</g>
</g>
<g id="Sole">
	<g>
		<path style="fill:#CCCCCC;" d="M31,15c-1,0-2.3,2-15,2c-5,0-14-1-15-1s-1,0-1,1c0,2,0,3,3.5,3c3.364,0,10.273,0,12.5,0
			c3,0,16,0,16-4C32,16,32,15,31,15z"/>
	</g>
</g>
<g>
</g>
<g>
</g>
<g>
</g>
<g>
</g>
<g>
</g>
<g>
</g>
<g>
</g>
<g>
</g>
<g>
</g>
<g>
</g>
<g>
</g>
<g>
</g>
<g>
</g>
<g>
</g>
<g>
</g>
</svg>
