<?xml version="1.0" encoding="iso-8859-1"?>
<!-- Generator: Adobe Illustrator 16.0.0, SVG Export Plug-In . SVG Version: 6.00 Build 0)  -->
<!DOCTYPE svg PUBLIC "-//W3C//DTD SVG 1.1//EN" "http://www.w3.org/Graphics/SVG/1.1/DTD/svg11.dtd">
<svg version="1.1" id="Layer_1" xmlns="http://www.w3.org/2000/svg" xmlns:xlink="http://www.w3.org/1999/xlink" x="0px" y="0px"
	 width="32px" height="32px" viewBox="0 0 32 32" style="enable-background:new 0 0 32 32;" xml:space="preserve">
<g id="Body">
	<g>
		<path style="fill:#735538;" d="M26,17c0-5.405-2.998-7.999-3-8H9c-0.002,0.001-3,2.595-3,8c0,7.125,6,7.781,6,10
			c0,2.5-3,2.594-3,5c0,0,2.5-1,4-1c0.969,0,1.063,1,3,1s2.031-1,3-1c1.5,0,4,1,4,1c0-2.406-3-2.5-3-5C20,24.781,26,24.125,26,17z"
			/>
	</g>
</g>
<g id="Brench">
	<g>
		<path style="fill:#4D4D4D;" d="M30,23H2c-1.104,0-2,0.895-2,2c0,1.104,0.896,2,2,2h28c1.104,0,2-0.896,2-2
			C32,23.895,31.104,23,30,23z"/>
	</g>
</g>
<g id="Claws">
	<g>
		<path style="fill-rule:evenodd;clip-rule:evenodd;fill:#BF8D5E;" d="M14,22c-0.553,0-1,0.447-1,1c0-0.553-0.448-1-1-1
			c-0.553,0-1,0.447-1,1v2c0,0.552,0.447,1,1,1c0.552,0,1-0.448,1-1c0,0.552,0.447,1,1,1s1-0.448,1-1v-2C15,22.447,14.553,22,14,22z
			 M20,22c-0.553,0-1,0.447-1,1c0-0.553-0.448-1-1-1c-0.553,0-1,0.447-1,1v2c0,0.552,0.447,1,1,1c0.552,0,1-0.448,1-1
			c0,0.552,0.447,1,1,1s1-0.448,1-1v-2C21,22.447,20.553,22,20,22z"/>
	</g>
</g>
<g id="Head">
	<g>
		<path style="fill-rule:evenodd;clip-rule:evenodd;fill:#A67A51;" d="M23.568,4.185C23.794,2.868,24,1.309,24,0
			c-1.126,0-2.569,1.849-3.378,3.032C20.418,3.011,20.21,3,20,3c-1.539,0-2.938,0.584-4,1.537C14.938,3.584,13.539,3,12,3
			c-0.21,0-0.418,0.011-0.622,0.032C10.569,1.849,9.126,0,8,0c0,1.309,0.206,2.868,0.432,4.185C6.959,5.278,6,7.024,6,9
			c0,3.313,2.687,6,6,6c1.539,0,2.938-0.584,4-1.537C17.063,14.416,18.461,15,20,15c3.313,0,6-2.687,6-6
			C26,7.024,25.041,5.278,23.568,4.185z"/>
	</g>
</g>
<g id="Face">
	<g>
		<path style="fill-rule:evenodd;clip-rule:evenodd;fill:#E6E6E6;" d="M20,5c-2.209,0-4,1.791-4,4c0-2.209-1.791-4-4-4S8,6.791,8,9
			s1.791,4,4,4c0.968,0,1.844-0.357,2.535-0.93L16,15l1.465-2.93C18.156,12.643,19.032,13,20,13c2.209,0,4-1.791,4-4S22.209,5,20,5z
			"/>
	</g>
</g>
<g id="Eyes">
	<g>
		<path style="fill-rule:evenodd;clip-rule:evenodd;fill:#4D4D4D;" d="M12,7c-1.104,0-2,0.896-2,2s0.896,2,2,2s2-0.896,2-2
			S13.104,7,12,7z M20,7c-1.104,0-2,0.896-2,2s0.896,2,2,2s2-0.896,2-2S21.104,7,20,7z"/>
	</g>
</g>
<g>
</g>
<g>
</g>
<g>
</g>
<g>
</g>
<g>
</g>
<g>
</g>
<g>
</g>
<g>
</g>
<g>
</g>
<g>
</g>
<g>
</g>
<g>
</g>
<g>
</g>
<g>
</g>
<g>
</g>
</svg>
