<?xml version="1.0" encoding="iso-8859-1"?>
<!-- Generator: Adobe Illustrator 16.0.0, SVG Export Plug-In . SVG Version: 6.00 Build 0)  -->
<!DOCTYPE svg PUBLIC "-//W3C//DTD SVG 1.1//EN" "http://www.w3.org/Graphics/SVG/1.1/DTD/svg11.dtd">
<svg version="1.1" id="Layer_1" xmlns="http://www.w3.org/2000/svg" xmlns:xlink="http://www.w3.org/1999/xlink" x="0px" y="0px"
	 width="32.008px" height="26px" viewBox="0 0 32.008 26" style="enable-background:new 0 0 32.008 26;" xml:space="preserve">
<g id="Brush">
	<g>
		<path style="fill:#CCCCCC;" d="M13,13c-6.095,0-5.219,7-10,7c-1.906,0-3-1-3-1s1.56,7,9,7c5.551,0,10-2.29,10-7
			C19,15.925,16.61,13,13,13z"/>
	</g>
</g>
<g id="Paint">
	<g>
		<path style="fill:#88C057;" d="M5.008,23c3.525,0,4-3,4-3c-1.074,1.089-3,0.999-3,0.999c0.826-0.825,0.985-3.015,1.016-3.756
			C6.059,18.712,5.049,20,3,20c-1.906,0-3-1-3-1s1.281,5.665,6.973,6.791C8.224,25.288,9.008,24,9.008,24
			C6.533,24.498,5.008,23,5.008,23z"/>
	</g>
</g>
<g id="Tube_1_">
	<g>
		<polygon style="fill:#6D5778;" points="17.008,9 14.008,14 18.008,18 23.008,15 		"/>
	</g>
</g>
<g id="Handle_1_">
	<g>
		<path style="fill:#9B7CAB;" d="M25.008,0c-3,0-8,9-8,9l6,6c0,0,9-5,9-8C32.008,6,26.008,0,25.008,0z"/>
	</g>
</g>
<g>
</g>
<g>
</g>
<g>
</g>
<g>
</g>
<g>
</g>
<g>
</g>
<g>
</g>
<g>
</g>
<g>
</g>
<g>
</g>
<g>
</g>
<g>
</g>
<g>
</g>
<g>
</g>
<g>
</g>
</svg>
