<?xml version="1.0" encoding="iso-8859-1"?>
<!-- Generator: Adobe Illustrator 16.0.0, SVG Export Plug-In . SVG Version: 6.00 Build 0)  -->
<!DOCTYPE svg PUBLIC "-//W3C//DTD SVG 1.1//EN" "http://www.w3.org/Graphics/SVG/1.1/DTD/svg11.dtd">
<svg version="1.1" id="Layer_1" xmlns="http://www.w3.org/2000/svg" xmlns:xlink="http://www.w3.org/1999/xlink" x="0px" y="0px"
	 width="32px" height="32px" viewBox="0 0 32 32" style="enable-background:new 0 0 32 32;" xml:space="preserve">
<g id="Handle">
	<g>
		<path style="fill:#48A0DC;" d="M8,20c-1,1-1,3-2,4l-5,4c-1,1-1,1.5-1,2s1.5,2,2,2s1,0,2-1l4-5c1-1,3-1,4-2L8,20z"/>
	</g>
</g>
<g id="Pan">
	<g>
		<circle style="fill:#666666;" cx="19" cy="13" r="13"/>
	</g>
</g>
<g id="Bottom">
	<g>
		<circle style="fill:#999999;" cx="19" cy="13" r="10"/>
	</g>
</g>
<g id="Albumen">
	<g>
		<path style="fill:#FFFFFF;" d="M24,9c-1,0-2-1-3-1c-3,0-5,2-6,3s-2,2-2,4s2,4,4,4c1,0,2.875,1,5,1c1,0,2-2,2-4s3-2,3-4
			C27,11,26,9,24,9z"/>
	</g>
</g>
<g id="Yolk">
	<g>
		<circle style="fill:#FFCC66;" cx="20" cy="14" r="3"/>
	</g>
</g>
<g>
</g>
<g>
</g>
<g>
</g>
<g>
</g>
<g>
</g>
<g>
</g>
<g>
</g>
<g>
</g>
<g>
</g>
<g>
</g>
<g>
</g>
<g>
</g>
<g>
</g>
<g>
</g>
<g>
</g>
</svg>
