<?xml version="1.0" encoding="iso-8859-1"?>
<!-- Generator: Adobe Illustrator 16.0.0, SVG Export Plug-In . SVG Version: 6.00 Build 0)  -->
<!DOCTYPE svg PUBLIC "-//W3C//DTD SVG 1.1//EN" "http://www.w3.org/Graphics/SVG/1.1/DTD/svg11.dtd">
<svg version="1.1" id="Layer_1" xmlns="http://www.w3.org/2000/svg" xmlns:xlink="http://www.w3.org/1999/xlink" x="0px" y="0px"
	 width="32.001px" height="32px" viewBox="0 0 32.001 32" style="enable-background:new 0 0 32.001 32;" xml:space="preserve">
<g id="Body_6_">
	<g>
		<path style="fill:#E6E6E6;" d="M30,0H2C0.896,0,0,0.896,0,2v28c0,1.104,0.896,2,2,2h28c1.104,0,2-0.896,2-2V2
			C32,0.896,31.104,0,30,0z"/>
	</g>
</g>
<g id="Holes">
	<g>
		<path style="fill-rule:evenodd;clip-rule:evenodd;fill:#CCCCCC;" d="M29,26c-0.552,0-1,0.447-1,1v2c0,0.552,0.448,1,1,1
			s1-0.448,1-1v-2C30,26.447,29.552,26,29,26z M25,26c-0.553,0-1,0.447-1,1v2c0,0.552,0.447,1,1,1c0.552,0,1-0.448,1-1v-2
			C26,26.447,25.552,26,25,26z"/>
	</g>
</g>
<g id="Viewer">
	<g>
		<path style="fill:#666666;" d="M7,7H3C2.448,7,2,7.447,2,8c0,0.552,0.448,1,1,1h4c0.552,0,1-0.448,1-1C8,7.447,7.552,7,7,7z"/>
	</g>
</g>
<g id="Blitz">
	<g>
		<path style="fill:#AFC39E;" d="M29,2h-4c-0.553,0-1,0.447-1,1v4c0,0.552,0.447,1,1,1h4c0.552,0,1-0.448,1-1V3
			C30,2.447,29.552,2,29,2z"/>
	</g>
</g>
<g id="Strip">
	<g>
		<rect x="0" y="13" style="fill:#ED7161;" width="32.001" height="2"/>
	</g>
</g>
<g id="Strip_3_">
	<g>
		<rect x="0" y="15" style="fill:#FFCC66;" width="32.001" height="2"/>
	</g>
</g>
<g id="Strip_2_">
	<g>
		<rect x="0" y="17" style="fill:#88C057;" width="32.001" height="1.999"/>
	</g>
</g>
<g id="Lens_6_">
	<g>
		<circle style="fill:#B3B3B3;" cx="16" cy="16" r="8"/>
	</g>
</g>
<g id="Lens_3_">
	<g>
		<circle style="fill:#666666;" cx="16" cy="16" r="6"/>
	</g>
</g>
<g id="Lens_4_">
	<g>
		<circle style="fill:#333333;" cx="16" cy="16" r="2"/>
	</g>
</g>
<g>
</g>
<g>
</g>
<g>
</g>
<g>
</g>
<g>
</g>
<g>
</g>
<g>
</g>
<g>
</g>
<g>
</g>
<g>
</g>
<g>
</g>
<g>
</g>
<g>
</g>
<g>
</g>
<g>
</g>
</svg>
