<?xml version="1.0" encoding="iso-8859-1"?>
<!-- Generator: Adobe Illustrator 16.0.0, SVG Export Plug-In . SVG Version: 6.00 Build 0)  -->
<!DOCTYPE svg PUBLIC "-//W3C//DTD SVG 1.1//EN" "http://www.w3.org/Graphics/SVG/1.1/DTD/svg11.dtd">
<svg version="1.1" id="Layer_1" xmlns="http://www.w3.org/2000/svg" xmlns:xlink="http://www.w3.org/1999/xlink" x="0px" y="0px"
	 width="32px" height="24px" viewBox="0 0 32 24" style="enable-background:new 0 0 32 24;" xml:space="preserve">
<g id="Container_1_">
	<g>
		<path style="fill:#B3B3B3;" d="M29,4H3C2.448,4,2,4.447,2,5v12c0,0.552,0.448,1,1,1h26c0.552,0,1-0.448,1-1V5
			C30,4.447,29.552,4,29,4z"/>
	</g>
</g>
<g id="Paper_Tray">
	<g>
		<path style="fill:#4D4D4D;" d="M21,0H3C2.448,0,2,0.447,2,1v6c0,0.552,0.448,1,1,1h18c0.552,0,1-0.448,1-1V1
			C22,0.447,21.552,0,21,0z"/>
	</g>
</g>
<g id="Shape_2_">
	<g>
		<path style="fill:#999999;" d="M21,16H3c-0.552,0-1,0.447-1,1v6c0,0.552,0.448,1,1,1h18c0.552,0,1-0.448,1-1v-6
			C22,16.447,21.552,16,21,16z"/>
	</g>
</g>
<g id="Body_10_">
	<g>
		<path style="fill-rule:evenodd;clip-rule:evenodd;fill:#E6E6E6;" d="M30,6H2C0.895,6,0,6.896,0,8v12c0,1.104,0.895,2,2,2v-2
			c0-1.104,0.896-2,2-2h16c1.104,0,2,0.896,2,2v2h8c1.104,0,2-0.896,2-2V8C32,6.896,31.104,6,30,6z"/>
	</g>
</g>
<g id="Grey_Led">
	<g>
		<circle style="fill:#808080;" cx="27" cy="11" r="1"/>
	</g>
</g>
<g id="Green_Led">
	<g>
		<circle style="fill:#88C057;" cx="23" cy="11" r="1"/>
	</g>
</g>
<g>
</g>
<g>
</g>
<g>
</g>
<g>
</g>
<g>
</g>
<g>
</g>
<g>
</g>
<g>
</g>
<g>
</g>
<g>
</g>
<g>
</g>
<g>
</g>
<g>
</g>
<g>
</g>
<g>
</g>
</svg>
