<?xml version="1.0" encoding="iso-8859-1"?>
<!-- Generator: Adobe Illustrator 16.0.0, SVG Export Plug-In . SVG Version: 6.00 Build 0)  -->
<!DOCTYPE svg PUBLIC "-//W3C//DTD SVG 1.1//EN" "http://www.w3.org/Graphics/SVG/1.1/DTD/svg11.dtd">
<svg version="1.1" id="Layer_1" xmlns="http://www.w3.org/2000/svg" xmlns:xlink="http://www.w3.org/1999/xlink" x="0px" y="0px"
	 width="32.004px" height="19px" viewBox="0 0 32.004 19" style="enable-background:new 0 0 32.004 19;" xml:space="preserve">
<g id="Body_9_">
	<g>
		<path style="fill-rule:evenodd;clip-rule:evenodd;fill:#4D4D4D;" d="M32.004,15.986L31.004,3l-6-1h-18l-6,1L0.027,15.688
			c-0.008,0.078-0.016,0.156-0.018,0.234l-0.005,0.064l0.007,0.002c-0.005,1.328,0.869,2.548,2.212,2.908
			c1.487,0.398,3-0.401,3.553-1.8L9.004,13h14l3.205,4.067C26.64,18.195,27.725,19,29.004,19c1.657,0,3-1.344,3-3
			c0-0.005-0.001-0.009-0.001-0.014H32.004z"/>
	</g>
</g>
<g id="Touch_Pad">
	<g>
		<path style="fill-rule:evenodd;clip-rule:evenodd;fill:#1A1A1A;" d="M12.004,5c0,1.104,0.896,2,2,2h4c1.104,0,2-0.896,2-2V2h-8V5z
			"/>
	</g>
</g>
<g id="Side_BTNs">
	<g>
		<path style="fill-rule:evenodd;clip-rule:evenodd;fill:#4D4D4D;" d="M6.004,0h-2c-1.104,0-2,0.896-2,2v2c0,1.104,0.896,2,2,2h2
			c1.104,0,2-0.896,2-2V2C8.004,0.896,7.109,0,6.004,0z M28.004,0h-2c-1.104,0-2,0.896-2,2v2c0,1.104,0.896,2,2,2h2
			c1.104,0,2-0.896,2-2V2C30.004,0.896,29.109,0,28.004,0z"/>
	</g>
</g>
<g id="BTN">
	<g>
		<circle style="fill:#808080;" cx="16.004" cy="9" r="1"/>
	</g>
</g>
<g id="Shapes">
	<g>
		<path style="fill-rule:evenodd;clip-rule:evenodd;fill:#666666;" d="M11.004,7c-2.209,0-4,1.791-4,4s1.791,4,4,4
			c2.209,0,4-1.791,4-4S13.213,7,11.004,7z M21.004,7c-2.209,0-4,1.791-4,4s1.791,4,4,4c2.209,0,4-1.791,4-4S23.213,7,21.004,7z"/>
	</g>
</g>
<g id="Controllers">
	<g>
		<path style="fill-rule:evenodd;clip-rule:evenodd;fill:#B4B4B4;" d="M21.004,9c-1.105,0-2,0.896-2,2s0.895,2,2,2
			c1.104,0,2-0.896,2-2S22.109,9,21.004,9z M11.004,9c-1.104,0-2,0.896-2,2s0.896,2,2,2s2-0.896,2-2S12.109,9,11.004,9z"/>
	</g>
</g>
<g id="Shape_1_">
	<g>
		<path style="fill-rule:evenodd;clip-rule:evenodd;fill:#333333;" d="M5.004,1c-2.762,0-5,2.238-5,5s2.238,5,5,5
			c2.761,0,5-2.238,5-5S7.766,1,5.004,1z M27.004,1c-2.762,0-5,2.238-5,5s2.238,5,5,5c2.761,0,5-2.238,5-5S29.766,1,27.004,1z"/>
	</g>
</g>
<g id="BTNs_1_">
	<g>
		<path style="fill-rule:evenodd;clip-rule:evenodd;fill:#CCCCCC;" d="M5.004,5c0.552,0,1-0.448,1-1c0-0.553-0.448-1-1-1
			c-0.553,0-1,0.447-1,1C4.004,4.552,4.452,5,5.004,5z M3.004,5c-0.552,0-1,0.447-1,1c0,0.552,0.448,1,1,1s1-0.448,1-1
			C4.004,5.447,3.557,5,3.004,5z M7.004,5c-0.553,0-1,0.447-1,1c0,0.552,0.447,1,1,1c0.552,0,1-0.448,1-1
			C8.004,5.447,7.557,5,7.004,5z M5.004,7c-0.553,0-1,0.447-1,1c0,0.552,0.447,1,1,1c0.552,0,1-0.448,1-1
			C6.004,7.447,5.557,7,5.004,7z M27.004,5c0.552,0,1-0.448,1-1c0-0.553-0.448-1-1-1s-1,0.447-1,1C26.004,4.552,26.452,5,27.004,5z
			 M25.004,5c-0.553,0-1,0.447-1,1c0,0.552,0.447,1,1,1c0.552,0,1-0.448,1-1C26.004,5.447,25.557,5,25.004,5z M29.004,5
			c-0.552,0-1,0.447-1,1c0,0.552,0.448,1,1,1s1-0.448,1-1C30.004,5.447,29.557,5,29.004,5z M27.004,7c-0.552,0-1,0.447-1,1
			c0,0.552,0.448,1,1,1s1-0.448,1-1C28.004,7.447,27.557,7,27.004,7z"/>
	</g>
</g>
<g>
</g>
<g>
</g>
<g>
</g>
<g>
</g>
<g>
</g>
<g>
</g>
<g>
</g>
<g>
</g>
<g>
</g>
<g>
</g>
<g>
</g>
<g>
</g>
<g>
</g>
<g>
</g>
<g>
</g>
</svg>
