<?xml version="1.0" encoding="iso-8859-1"?>
<!-- Generator: Adobe Illustrator 16.0.0, SVG Export Plug-In . SVG Version: 6.00 Build 0)  -->
<!DOCTYPE svg PUBLIC "-//W3C//DTD SVG 1.1//EN" "http://www.w3.org/Graphics/SVG/1.1/DTD/svg11.dtd">
<svg version="1.1" id="Layer_1" xmlns="http://www.w3.org/2000/svg" xmlns:xlink="http://www.w3.org/1999/xlink" x="0px" y="0px"
	 width="32px" height="32px" viewBox="0 0 32 32" style="enable-background:new 0 0 32 32;" xml:space="preserve">
<g id="Body_8_">
	<g>
		<path style="fill:#FFCC66;" d="M25,13c0,0-2-1-2-2c0-2,2-1,4-4c0,0-1-7-8-7c-6,0-8,5-8,8c0,5,3,5,3,8c0,1-1,2-4,2c-5,0-7-5-7-5
			s-3,2-3,7c0,6,4,12,13,12h5c3,0,9-4,9-9s-3-5-3-7S25,13,25,13z"/>
	</g>
</g>
<g id="Beak">
	<g>
		<path style="fill:#FF8833;" d="M30,8c-2,0-3-1-3-1c-2,3-4,2-4,4c0,1,2,2,2,2c2,0,7-3,7-4S31,8,30,8z"/>
	</g>
</g>
<g id="Eye">
	<g>
		<circle style="fill:#666666;" cx="24" cy="6" r="1"/>
	</g>
</g>
<g>
</g>
<g>
</g>
<g>
</g>
<g>
</g>
<g>
</g>
<g>
</g>
<g>
</g>
<g>
</g>
<g>
</g>
<g>
</g>
<g>
</g>
<g>
</g>
<g>
</g>
<g>
</g>
<g>
</g>
</svg>
