<?xml version="1.0" encoding="iso-8859-1"?>
<!-- Generator: Adobe Illustrator 16.0.0, SVG Export Plug-In . SVG Version: 6.00 Build 0)  -->
<!DOCTYPE svg PUBLIC "-//W3C//DTD SVG 1.1//EN" "http://www.w3.org/Graphics/SVG/1.1/DTD/svg11.dtd">
<svg version="1.1" id="Layer_1" xmlns="http://www.w3.org/2000/svg" xmlns:xlink="http://www.w3.org/1999/xlink" x="0px" y="0px"
	 width="32.007px" height="32.008px" viewBox="0 0 32.007 32.008" style="enable-background:new 0 0 32.007 32.008;"
	 xml:space="preserve">
<g id="Sharpner">
	<g>
		<path style="fill:#ED7161;" d="M31.414,11.348L20.66,0.594c-0.792-0.792-2.076-0.792-2.867,0L12.95,5.437
			c0.016,0.192,0.058,0.376,0.058,0.572c0,3.866-3.134,7-7,7c-0.196,0-0.38-0.042-0.572-0.058l-4.842,4.843
			c-0.792,0.791-0.792,2.075,0,2.867l10.753,10.753c0.792,0.792,2.075,0.792,2.867,0l4.85-4.85
			c-0.015-0.187-0.056-0.365-0.056-0.556c0-3.866,3.134-7,7-7c0.19,0,0.369,0.041,0.556,0.056l4.85-4.85
			C32.205,13.423,32.205,12.14,31.414,11.348z"/>
	</g>
</g>
<g id="Dent">
	<g>
		<path style="fill:#A14D42;" d="M23.543,8.473c-1.953-1.952-5.119-1.952-7.071,0L3.439,21.506l7.071,7.071l13.033-13.033
			C25.496,13.592,25.496,10.426,23.543,8.473z"/>
	</g>
</g>
<g id="Blade">
	<g>
		<path style="fill:#E6E6E6;" d="M23.543,8.473c-1.953-1.952-5.119-1.952-7.071,0L2.439,22.506l4.536,4.536L24.382,9.634
			C24.158,9.221,23.893,8.823,23.543,8.473z"/>
	</g>
</g>
<g id="Sharp">
	<g>
		<path style="fill:#FFFFFF;" d="M23.543,8.473L5.975,26.042l1,1L24.382,9.634C24.158,9.221,23.893,8.823,23.543,8.473z"/>
	</g>
</g>
<g id="Screw">
	<g>
		<circle style="fill:#999999;" cx="13.008" cy="16.009" r="1"/>
	</g>
</g>
<g>
</g>
<g>
</g>
<g>
</g>
<g>
</g>
<g>
</g>
<g>
</g>
<g>
</g>
<g>
</g>
<g>
</g>
<g>
</g>
<g>
</g>
<g>
</g>
<g>
</g>
<g>
</g>
<g>
</g>
</svg>
