<?xml version="1.0" encoding="iso-8859-1"?>
<!-- Generator: Adobe Illustrator 16.0.0, SVG Export Plug-In . SVG Version: 6.00 Build 0)  -->
<!DOCTYPE svg PUBLIC "-//W3C//DTD SVG 1.1//EN" "http://www.w3.org/Graphics/SVG/1.1/DTD/svg11.dtd">
<svg version="1.1" id="Layer_1" xmlns="http://www.w3.org/2000/svg" xmlns:xlink="http://www.w3.org/1999/xlink" x="0px" y="0px"
	 width="28.008px" height="32px" viewBox="0 0 28.008 32" style="enable-background:new 0 0 28.008 32;" xml:space="preserve">
<g id="Snowballs">
	<g>
		<path style="fill-rule:evenodd;clip-rule:evenodd;fill:#E6E6E6;" d="M18.904,15.456c0.691-0.978,1.101-2.168,1.101-3.456
			c0-3.313-2.687-6-6-6c-3.314,0-6,2.687-6,6c0,1.288,0.41,2.479,1.101,3.456C6.639,17.062,5.005,19.838,5.005,23
			c0,4.971,4.029,9,9,9s9-4.029,9-9C23.005,19.837,21.371,17.062,18.904,15.456z"/>
	</g>
</g>
<g id="Butons">
	<g>
		<path style="fill-rule:evenodd;clip-rule:evenodd;fill:#666666;" d="M14.005,24c-0.553,0-1,0.447-1,1c0,0.552,0.447,1,1,1
			c0.552,0,1-0.448,1-1C15.005,24.447,14.557,24,14.005,24z M14.005,22c0.552,0,1-0.448,1-1c0-0.553-0.448-1-1-1
			c-0.553,0-1,0.447-1,1C13.005,21.552,13.452,22,14.005,22z"/>
	</g>
</g>
<g id="Eyes_2_">
	<g>
		<path style="fill-rule:evenodd;clip-rule:evenodd;fill:#666666;" d="M12.005,10c-0.553,0-1,0.447-1,1c0,0.552,0.447,1,1,1
			c0.552,0,1-0.448,1-1C13.005,10.447,12.557,10,12.005,10z M16.005,10c-0.553,0-1,0.447-1,1c0,0.552,0.447,1,1,1
			c0.552,0,1-0.448,1-1C17.005,10.447,16.557,10,16.005,10z"/>
	</g>
</g>
<g id="Nose_1_">
	<g>
		<path style="fill:#ED7161;" d="M13.995,12.989c-0.547-0.003-0.987,0.464-0.984,1.043c0.002,0.579,0.457,2.968,1.004,2.971
			s0.979-2.381,0.976-2.96C14.988,13.464,14.542,12.992,13.995,12.989z"/>
	</g>
</g>
<g id="Hat">
	<g>
		<path style="fill-rule:evenodd;clip-rule:evenodd;fill:#666666;" d="M19.005,6h-2V1c0-0.553-0.448-1-1-1h-4c-0.553,0-1,0.447-1,1
			v5h-2c-0.553,0-1,0.447-1,1c0,0.552,0.447,0.999,1,0.999h10c0.552,0,1-0.447,1-0.999C20.005,6.447,19.557,6,19.005,6z"/>
	</g>
</g>
<g id="Hands">
	<g>
		<path style="fill-rule:evenodd;clip-rule:evenodd;fill:#A67C52;" d="M27.718,12.286c-0.388-0.388-1.017-0.388-1.404,0
			l-1.309,1.309V13c0-0.553-0.448-1-1-1c-0.553,0-1,0.447-1,1v2.595l-2.714,2.714c-0.388,0.388-0.388,1.017,0,1.404
			s1.017,0.388,1.405,0l2.985-2.985c0.018-0.017,0.035-0.033,0.051-0.051l2.985-2.986C28.105,13.303,28.105,12.674,27.718,12.286z
			 M5.005,15.595V13c0-0.553-0.448-1-1-1c-0.553,0-1,0.447-1,1v0.595l-1.309-1.309c-0.389-0.388-1.018-0.388-1.405,0
			s-0.388,1.017,0,1.404l2.986,2.986c0.017,0.018,0.033,0.034,0.051,0.051l2.985,2.985c0.388,0.388,1.017,0.388,1.404,0
			s0.388-1.017,0-1.404L5.005,15.595z"/>
	</g>
</g>
<g>
</g>
<g>
</g>
<g>
</g>
<g>
</g>
<g>
</g>
<g>
</g>
<g>
</g>
<g>
</g>
<g>
</g>
<g>
</g>
<g>
</g>
<g>
</g>
<g>
</g>
<g>
</g>
<g>
</g>
</svg>
