<?xml version="1.0" encoding="iso-8859-1"?>
<!-- Generator: Adobe Illustrator 16.0.0, SVG Export Plug-In . SVG Version: 6.00 Build 0)  -->
<!DOCTYPE svg PUBLIC "-//W3C//DTD SVG 1.1//EN" "http://www.w3.org/Graphics/SVG/1.1/DTD/svg11.dtd">
<svg version="1.1" id="Layer_1" xmlns="http://www.w3.org/2000/svg" xmlns:xlink="http://www.w3.org/1999/xlink" x="0px" y="0px"
	 width="32.01px" height="32.007px" viewBox="0 0 32.01 32.007" style="enable-background:new 0 0 32.01 32.007;"
	 xml:space="preserve">
<g id="Legs">
	<g>
		<path style="fill-rule:evenodd;clip-rule:evenodd;fill:#CCCCCC;" d="M19,18.007l-3,3l-2,2v3l-3,5l2,1l7-7L19,18.007z M14,13.007
			l-7-1l-7,7l1,2l5-3h3l2-2L14,13.007z"/>
	</g>
</g>
<g id="Flames">
	<g>
		<path style="fill:#FFCC66;" d="M5,22.007c-1.97,2.874-4.987,6.417-5,8c-0.01,1.202,0.788,2.01,2,2c1.608-0.014,5.005-3.016,8-5
			L5,22.007z"/>
	</g>
</g>
<g id="Flames_1_">
	<g>
		<path style="fill:#ED7161;" d="M8,21.007c-1.97,2.874-6,6.417-6,8c0,1.045,0.101,1,1,1c1.608,0,5.005-4.016,8-6L8,21.007z"/>
	</g>
</g>
<g id="Body_2_">
	<g>
		<path style="fill:#387AA7;" d="M30,0.007c-3.143,0.194-8.569,0.568-15,7c-4.73,4.73-8.88,11.609-10.826,16.174l4.684,4.684
			C13.396,25.938,20.229,21.777,25,17.007c6.39-6.39,6.753-11.834,7-15C32.11,0.594,31.307-0.074,30,0.007z"/>
	</g>
</g>
<g id="Body_3_">
	<g>
		<path style="fill:#48A0DC;" d="M30,0.007c-3.143,0.194-8.569,0.568-15,7c-3.862,3.861-7.332,9.153-9.539,13.452l6.118,6.118
			c4.273-2.201,9.532-5.682,13.421-9.57c6.39-6.39,6.753-11.834,7-15C32.11,0.594,31.307-0.074,30,0.007z"/>
	</g>
</g>
<g id="Glass">
	<g>
		<circle style="fill:#4D4D4D;" cx="24" cy="8.007" r="4"/>
	</g>
</g>
<g id="Glass_1_">
	<g>
		<circle style="fill:#FFFFFF;" cx="24" cy="8.007" r="2"/>
	</g>
</g>
<g>
</g>
<g>
</g>
<g>
</g>
<g>
</g>
<g>
</g>
<g>
</g>
<g>
</g>
<g>
</g>
<g>
</g>
<g>
</g>
<g>
</g>
<g>
</g>
<g>
</g>
<g>
</g>
<g>
</g>
</svg>
