<?xml version="1.0" encoding="iso-8859-1"?>
<!-- Generator: Adobe Illustrator 16.0.0, SVG Export Plug-In . SVG Version: 6.00 Build 0)  -->
<!DOCTYPE svg PUBLIC "-//W3C//DTD SVG 1.1//EN" "http://www.w3.org/Graphics/SVG/1.1/DTD/svg11.dtd">
<svg version="1.1" id="Layer_1" xmlns="http://www.w3.org/2000/svg" xmlns:xlink="http://www.w3.org/1999/xlink" x="0px" y="0px"
	 width="32px" height="32px" viewBox="0 0 32 32" style="enable-background:new 0 0 32 32;" xml:space="preserve">
<g id="Earpiece">
	<g>
		<path style="fill-rule:evenodd;clip-rule:evenodd;fill:#333333;" d="M31,4c-0.556,0-2.962,0.618-5.335,1.51
			C27.652,3.418,29,2,29,2l-2-2c0,0-7.249,8.055-12.803,14.197C8.055,19.75,0,27,0,27l2,2c0,0,1.418-1.347,3.51-3.335
			C4.618,28.038,4,30.444,4,31c0,1,1,1,2,1s2-8,3-9c0.378-0.377,3.322-3.464,6.84-7.16C19.535,12.322,22.622,9.377,23,9c1-1,9-2,9-3
			S32,4,31,4z"/>
	</g>
</g>
<g id="Frame_1_">
	<g>
		<path style="fill-rule:evenodd;clip-rule:evenodd;fill:#333333;" d="M29,4c-0.691-0.691-0.591-1.41,0-2l-2-2c0,0-4,2-7,5s-4,7-6,9
			s-6,3-9,6s-5,7-5,7l2,2c0.591-0.591,1.309-0.691,2,0c2,2,4,3,6,3c3,0,8-5,8-8c0-4-3-7-2-8s4,2,8,2c3,0,8-5,8-8C32,8,31,6,29,4z"/>
	</g>
</g>
<g id="Lens_5_">
	<g>
		<path style="fill-rule:evenodd;clip-rule:evenodd;fill:#808080;" d="M12,18c-3,0-8,5-8,7s3,5,6,5c2,0,6-3,6-6C16,20,14,18,12,18z
			 M25,4c-2,0-7,5-7,8c0,2,2,4,6,4c3,0,6-4,6-6C30,7,27,4,25,4z"/>
	</g>
</g>
<g id="Earpiece_1_">
	<g>
		<path style="fill-rule:evenodd;clip-rule:evenodd;fill:#666666;" d="M7.874,19.906c-0.577,0.521-1.138,1.026-1.685,1.52
			C4.913,22.749,4,24.147,4,25c0,0.497,0.186,1.056,0.51,1.614c0.141-0.133,0.278-0.265,0.428-0.406
			c-0.074,0.25-0.143,0.5-0.208,0.748c0.522,0.767,1.288,1.506,2.183,2.066C7.195,26.986,7.441,24.559,8,24
			c0.315-0.316,2.53-2.631,5.411-5.647C12.959,18.122,12.48,18,12,18C10.795,18,9.271,18.811,7.874,19.906z M27.259,4.952
			c-0.522,0.171-1.064,0.359-1.606,0.563c0.343-0.36,0.658-0.69,0.958-1.006C26.053,4.185,25.496,4,25,4
			c-0.918,0-2.468,1.059-3.877,2.49c-0.316,0.35-0.639,0.705-0.968,1.068C18.935,9.036,18,10.704,18,12
			c0,0.489,0.123,0.978,0.363,1.438C20.858,11.06,22.713,9.287,23,9c0.605-0.606,3.776-1.212,6.186-1.817
			C28.681,6.295,27.991,5.518,27.259,4.952z"/>
	</g>
</g>
<g>
</g>
<g>
</g>
<g>
</g>
<g>
</g>
<g>
</g>
<g>
</g>
<g>
</g>
<g>
</g>
<g>
</g>
<g>
</g>
<g>
</g>
<g>
</g>
<g>
</g>
<g>
</g>
<g>
</g>
</svg>
