<?xml version="1.0" encoding="iso-8859-1"?>
<!-- Generator: Adobe Illustrator 16.0.0, SVG Export Plug-In . SVG Version: 6.00 Build 0)  -->
<!DOCTYPE svg PUBLIC "-//W3C//DTD SVG 1.1//EN" "http://www.w3.org/Graphics/SVG/1.1/DTD/svg11.dtd">
<svg version="1.1" id="Layer_1" xmlns="http://www.w3.org/2000/svg" xmlns:xlink="http://www.w3.org/1999/xlink" x="0px" y="0px"
	 width="28px" height="32.001px" viewBox="0 0 28 32.001" style="enable-background:new 0 0 28 32.001;" xml:space="preserve">
<g id="Hair">
	<g>
		<path style="fill:#A67C52;" d="M14,0.001c-5.545,0-8,3-8,8v14h16v-14C22,3.001,18.729,0.001,14,0.001z"/>
	</g>
</g>
<g id="Neck">
	<g>
		<polygon style="fill:#DBB59A;" points="16,15.001 12,15.001 11,19.001 11,32.001 17,32.001 17,19.001 		"/>
	</g>
</g>
<g id="Suit">
	<g>
		<path style="fill:#48A0DC;" d="M26,24.001c-0.94-0.94-8-4-8-4l-4,12h14C28,32.001,27.88,25.881,26,24.001z M2,24.001
			c-1.88,1.88-2,8-2,8h14l-4-12C10,20.001,2.939,23.061,2,24.001z"/>
	</g>
</g>
<g id="Collar">
	<g>
		<path style="fill:#FFFFFF;" d="M5,24.001l5,1l3,7h1l-3-13L5,24.001z M17,19.001l-3,13h1l3-7l5-1L17,19.001z"/>
	</g>
</g>
<g id="Head_3_">
	<g>
		<path style="fill-rule:evenodd;clip-rule:evenodd;fill:#F6CBAD;" d="M16.752,5.983C15.97,7.714,13.27,9.001,10,9.001
			c0.004,0-0.988,0-1.985,0c0.044,1.958,0.226,3.48,0.985,5c1,2,3.041,4,5,4s4-2,5-4c0.885-1.771,0.986-3.544,0.998-6.008
			C19.988,6.849,17.83,5.983,16.752,5.983z"/>
	</g>
</g>
<g id="Headphones">
	<g>
		<path style="fill-rule:evenodd;clip-rule:evenodd;fill:#4D4D4D;" d="M22.796,6.527C21.925,3.369,18.32,1.001,14,1.001
			S6.075,3.369,5.204,6.527C4.537,6.893,4,7.415,4,8.001v2c0,1.104,1.896,2,3,2v-4c0-2.762,3.134-5,7-5s7,2.238,7,5v2
			c0,2.145-1.356,3.958-3.252,4.669c-0.27-0.403-0.728-0.669-1.248-0.669h-2c-0.828,0-1.5,0.672-1.5,1.5s0.672,1.5,1.5,1.5h2
			c0.147,0,0.287-0.028,0.422-0.067c2.95-0.389,5.321-2.608,5.927-5.485C23.49,11.084,24,10.572,24,10.001v-2
			C24,7.415,23.463,6.893,22.796,6.527z"/>
	</g>
</g>
<g>
</g>
<g>
</g>
<g>
</g>
<g>
</g>
<g>
</g>
<g>
</g>
<g>
</g>
<g>
</g>
<g>
</g>
<g>
</g>
<g>
</g>
<g>
</g>
<g>
</g>
<g>
</g>
<g>
</g>
</svg>
