<?xml version="1.0" encoding="iso-8859-1"?>
<!-- Generator: Adobe Illustrator 16.0.0, SVG Export Plug-In . SVG Version: 6.00 Build 0)  -->
<!DOCTYPE svg PUBLIC "-//W3C//DTD SVG 1.1//EN" "http://www.w3.org/Graphics/SVG/1.1/DTD/svg11.dtd">
<svg version="1.1" id="Layer_1" xmlns="http://www.w3.org/2000/svg" xmlns:xlink="http://www.w3.org/1999/xlink" x="0px" y="0px"
	 width="22px" height="32px" viewBox="0 0 22 32" style="enable-background:new 0 0 22 32;" xml:space="preserve">
<g id="Body_7_">
	<g>
		<path style="fill:#666666;" d="M16,0H6C4.896,0,4,0.896,4,2v28c0,1.104,0.896,2,2,2h10c1.104,0,2-0.896,2-2V2
			C18,0.896,17.104,0,16,0z"/>
	</g>
</g>
<g id="Tunnel_Visor">
	<g>
		<path style="fill-rule:evenodd;clip-rule:evenodd;fill:#333333;" d="M0,4c1.469,0,3,5,3,5h1V3H0V4z M0,13c1.469,0,3,5,3,5h1v-6H0
			V13z M0,22c1.469,0,3,5,3,5h1v-6H0V22z M18,3v6h1c0,0,1.531-5,3-5V3H18z M18,18h1c0,0,1.531-5,3-5v-1h-4V18z M18,27h1
			c0,0,1.531-5,3-5v-1h-4V27z"/>
	</g>
</g>
<g id="Green">
	<g>
		<circle style="fill:#88C057;" cx="11" cy="24.991" r="3.003"/>
	</g>
</g>
<g id="Yellow_2_">
	<g>
		<circle style="fill:#FFCC66;" cx="11" cy="15.991" r="3.003"/>
	</g>
</g>
<g id="Red_2_">
	<g>
		<circle style="fill:#ED7161;" cx="11" cy="6.991" r="3.003"/>
	</g>
</g>
<g>
</g>
<g>
</g>
<g>
</g>
<g>
</g>
<g>
</g>
<g>
</g>
<g>
</g>
<g>
</g>
<g>
</g>
<g>
</g>
<g>
</g>
<g>
</g>
<g>
</g>
<g>
</g>
<g>
</g>
</svg>
