<?xml version="1.0" encoding="iso-8859-1"?>
<!-- Generator: Adobe Illustrator 16.0.0, SVG Export Plug-In . SVG Version: 6.00 Build 0)  -->
<!DOCTYPE svg PUBLIC "-//W3C//DTD SVG 1.1//EN" "http://www.w3.org/Graphics/SVG/1.1/DTD/svg11.dtd">
<svg version="1.1" id="Layer_1" xmlns="http://www.w3.org/2000/svg" xmlns:xlink="http://www.w3.org/1999/xlink" x="0px" y="0px"
	 width="32px" height="32px" viewBox="0 0 32 32" style="enable-background:new 0 0 32 32;" xml:space="preserve">
<g id="Hose">
	<g>
		<path style="fill:#999999;" d="M23,0c-3,0-4,3-4,7c0,6-5,14-11,14c-4,0-6.005-6-6.005-11C1.995,7,3,6,5,6s3,1,3,4h2c0-3-1-6-5-6
			s-5,3-5,6c0,6,2,13,8,13c9,0,12.995-11,12.995-16C20.995,3,22,2,23,2s2,1,2,5h2C27,3,26,0,23,0z"/>
	</g>
</g>
<g id="Wheels">
	<g>
		<path style="fill:#666666;" d="M16,22H2c-1.104,0-2,0.896-2,2v6c0,1.104,0.896,2,2,2h14c1.104,0,2-0.896,2-2v-6
			C18,22.896,17.104,22,16,22z"/>
	</g>
</g>
<g id="Body_15_">
	<g>
		<path style="fill:#F06EAA;" d="M12,10H6c-2,0-4,1-4,14v3h14v-3C16,11,14,10,12,10z"/>
	</g>
</g>
<g id="Hole">
	<g>
		<circle style="fill:#666666;" cx="9" cy="14" r="2"/>
	</g>
</g>
<g id="Hose_Head">
	<g>
		<path style="fill-rule:evenodd;clip-rule:evenodd;fill:#999999;" d="M8,10v4c0,0.552,0.448,1,1,1s1-0.448,1-1v-4H8z"/>
	</g>
</g>
<g id="Body_2_">
	<g>
		<path style="fill:#CCCCCC;" d="M9,27c0,0-5,0-7-2v2c0,4,1,5,5,5h4c4,0,5-1,5-5v-2C14,27,9,27,9,27z"/>
	</g>
</g>
<g id="Button_1_">
	<g>
		<path style="fill:#CCCCCC;" d="M11,22H7c-0.553,0-1,0.447-1,1c0,0.552,0.447,1,1,1h4c0.552,0,1-0.448,1-1
			C12,22.447,11.552,22,11,22z"/>
	</g>
</g>
<g id="Beater">
	<g>
		<path style="fill:#666666;" d="M20,30c0,0,0,0.447,0,1c0,0.552,0.448,1,1,1h10c0.552,0,1-0.448,1-1c0-0.553,0-1,0-1H20z"/>
	</g>
</g>
<g id="Head_2_">
	<g>
		<path style="fill-rule:evenodd;clip-rule:evenodd;fill:#F06EAA;" d="M31,28h-3v-1c0-0.553-0.448-1-1-1h-2c-0.553,0-1,0.447-1,1v1
			h-3c-0.552,0-1,0.447-1,1c0,0.552,0,1,0,1h5h2h5c0,0,0-0.448,0-1C32,28.447,31.552,28,31,28z"/>
	</g>
</g>
<g id="Tube">
	<g>
		<rect x="25" y="7" style="fill:#CCCCCC;" width="2" height="19"/>
	</g>
</g>
<g>
</g>
<g>
</g>
<g>
</g>
<g>
</g>
<g>
</g>
<g>
</g>
<g>
</g>
<g>
</g>
<g>
</g>
<g>
</g>
<g>
</g>
<g>
</g>
<g>
</g>
<g>
</g>
<g>
</g>
</svg>
